<?xml version="1.0" encoding="UTF-8" standalone="no"?>
<svg
   xmlns:dc="http://purl.org/dc/elements/1.1/"
   xmlns:cc="http://creativecommons.org/ns#"
   xmlns:rdf="http://www.w3.org/1999/02/22-rdf-syntax-ns#"
   xmlns:svg="http://www.w3.org/2000/svg"
   xmlns="http://www.w3.org/2000/svg"
   viewBox="0 0 389.86667 161.96001"
   height="161.96001"
   width="389.86667"
   xml:space="preserve"
   id="svg2"
   version="1.1"><metadata
     id="metadata8"><rdf:RDF><cc:Work
         rdf:about=""><dc:format>image/svg+xml</dc:format><dc:type
           rdf:resource="http://purl.org/dc/dcmitype/StillImage" /></cc:Work></rdf:RDF></metadata><defs
     id="defs6"><clipPath
       id="clipPath84"
       clipPathUnits="userSpaceOnUse"><path
         id="path82"
         d="M 449.094,1128.85 748.578,956.359 898.23,1042.99 Z" /></clipPath><clipPath
       id="clipPath90"
       clipPathUnits="userSpaceOnUse"><path
         id="path88"
         d="M 449.094,1128.85 H 898.23 V 956.359 H 449.094 Z" /></clipPath><linearGradient
       id="linearGradient96"
       spreadMethod="pad"
       gradientTransform="matrix(449.13,0,0,449.13,449.146,1042.53)"
       gradientUnits="userSpaceOnUse"
       y2="0"
       x2="1"
       y1="0"
       x1="0"><stop
         id="stop92"
         offset="0"
         style="stop-opacity:1;stop-color:#b8e8f2" /><stop
         id="stop94"
         offset="1"
         style="stop-opacity:1;stop-color:#2188c5" /></linearGradient><clipPath
       id="clipPath106"
       clipPathUnits="userSpaceOnUse"><path
         id="path104"
         d="m 0,1214.72 299.504,-172.49 149.629,86.63 z" /></clipPath><clipPath
       id="clipPath112"
       clipPathUnits="userSpaceOnUse"><path
         id="path110"
         d="M 0,1214.72 H 449.133 V 1042.23 H 0 Z" /></clipPath><linearGradient
       id="linearGradient118"
       spreadMethod="pad"
       gradientTransform="matrix(449.13,0,0,449.13,-0.00976563,1128.47)"
       gradientUnits="userSpaceOnUse"
       y2="0"
       x2="1"
       y1="0"
       x1="0"><stop
         id="stop114"
         offset="0"
         style="stop-opacity:1;stop-color:#f9a8b1" /><stop
         id="stop116"
         offset="1"
         style="stop-opacity:1;stop-color:#ed1c24" /></linearGradient><clipPath
       id="clipPath128"
       clipPathUnits="userSpaceOnUse"><path
         id="path126"
         d="M 299.684,869.199 599.18,696.707 748.813,783.34 Z" /></clipPath><clipPath
       id="clipPath134"
       clipPathUnits="userSpaceOnUse"><path
         id="path132"
         d="M 299.684,869.199 H 748.813 V 696.707 H 299.684 Z" /></clipPath><linearGradient
       id="linearGradient140"
       spreadMethod="pad"
       gradientTransform="matrix(374.887,0,0,374.887,299.497,782.85)"
       gradientUnits="userSpaceOnUse"
       y2="0"
       x2="1"
       y1="0"
       x1="0"><stop
         id="stop136"
         offset="0"
         style="stop-opacity:1;stop-color:#e6e7e5" /><stop
         id="stop138"
         offset="1"
         style="stop-opacity:1;stop-color:#d9dad7" /></linearGradient></defs><g
     transform="matrix(1.3333333,0,0,-1.3333333,0,161.96)"
     id="g10"><g
       transform="scale(0.1)"
       id="g12"><path
         id="path14"
         style="fill:#104076;fill-opacity:1;fill-rule:nonzero;stroke:none"
         d="m 951.477,525.555 c -2.903,0 -4.59,0 -5.813,3.633 l -12.078,35.554 h -68.219 l -12.101,-35.554 c -0.731,-2.422 -2.172,-3.633 -5.082,-3.633 h -16.45 c -3.14,0 -3.867,2.187 -3.14,4.601 l 54.672,155.539 c 2.656,7.743 4.832,9.442 12.339,9.684 h 7.25 c 8.7,0 10.641,-2.422 13.059,-9.684 l 54.441,-155.539 c 0.958,-2.179 0.231,-4.601 -2.91,-4.601 z m -40.391,109.34 -11.383,35.562 h -1.207 L 887.613,636.105 871.16,584.344 h 56.137 l -16.211,50.551" /><path
         id="path16"
         style="fill:#104076;fill-opacity:1;fill-rule:nonzero;stroke:none"
         d="m 1009.55,530.156 c 0,-3.879 -1.22,-4.601 -4.84,-4.601 h -12.097 c -3.379,0 -5.078,0.722 -5.078,4.601 v 123.375 c 0,22.254 9.668,41.606 40.875,41.606 h 64.83 c 3.87,0 4.6,-1.696 4.6,-5.086 v -9.914 c 0,-3.875 -0.73,-5.086 -4.6,-5.086 h -64.58 c -13.3,0 -19.11,-5.559 -19.11,-18.141 V 530.156" /><path
         id="path18"
         style="fill:#104076;fill-opacity:1;fill-rule:nonzero;stroke:none"
         d="m 1226.78,525.555 h -67.25 c -31.45,0 -40.89,19.109 -40.89,41.367 v 86.605 c 0,22.262 11.38,41.61 40.89,41.61 h 66.04 c 3.63,0 4.36,-1.699 4.36,-5.078 v -10.164 c 0,-3.625 -0.73,-4.836 -4.36,-4.836 h -65.8 c -13.3,0 -19.1,-5.813 -19.1,-18.391 v -31.441 h 76.92 c 3.62,0 4.36,-1.457 4.36,-5.09 v -9.184 c 0,-3.148 -0.74,-4.836 -4.36,-4.836 h -76.92 v -42.105 c 0,-10.879 5.32,-18.133 19.1,-18.133 h 67.01 c 3.87,0 4.59,-1.457 4.59,-5.078 v -10.168 c 0,-3.391 -0.72,-5.078 -4.59,-5.078" /><path
         id="path20"
         style="fill:#104076;fill-opacity:1;fill-rule:nonzero;stroke:none"
         d="m 1366.61,690.781 c 0,3.387 1.45,4.11 4.59,4.11 h 13.08 c 3.38,0 4.59,-0.723 4.59,-4.11 V 529.676 c 0,-3.399 -1.21,-4.121 -4.59,-4.121 h -13.08 c -3.14,0 -4.59,0.722 -4.59,4.121 v 75.472 h -85.39 v -75.472 c 0,-3.399 -1.22,-4.121 -4.59,-4.121 h -13.31 c -2.9,0 -4.6,0.722 -4.6,4.121 v 161.105 c 0,3.387 1.7,4.11 4.6,4.11 h 13.31 c 3.37,0 4.59,-0.723 4.59,-4.11 V 624.5 h 85.39 v 66.281" /><path
         id="path22"
         style="fill:#104076;fill-opacity:1;fill-rule:nonzero;stroke:none"
         d="m 1461.2,675.297 h -47.17 c -2.9,0 -3.38,0.973 -3.38,3.871 v 11.859 c 0,2.657 0.48,3.868 3.38,3.868 h 118.53 c 2.89,0 3.38,-1.211 3.38,-3.868 v -11.859 c 0,-2.898 -0.49,-3.871 -3.38,-3.871 h -48.61 V 529.664 c 0,-3.379 -1.21,-4.109 -4.37,-4.109 h -13.79 c -3.13,0 -4.59,0.73 -4.59,4.109 v 145.633" /><path
         id="path24"
         style="fill:#104076;fill-opacity:1;fill-rule:nonzero;stroke:none"
         d="m 1654.98,552.41 c 3.62,1.445 4.83,-0.488 5.55,-1.941 l 4.6,-10.149 c 1.95,-3.867 0.97,-4.843 -1.21,-6.308 -15.73,-9.18 -35.81,-11.114 -51.29,-11.114 -45.22,0 -72.09,26.368 -72.09,84.907 0,54.433 29.78,89.504 73.79,89.504 13.78,0 28.78,-1.692 45,-9.907 1.93,-0.972 2.89,-2.422 1.2,-5.574 l -5.55,-11.133 c -0.97,-1.925 -1.71,-2.898 -4.37,-1.687 -10.88,4.84 -22.98,7.5 -35.31,7.5 -36.78,0 -52.01,-33.617 -52.01,-68.703 0,-35.317 12.57,-64.106 53.22,-64.106 14.03,0 27.09,3.633 38.47,8.711" /><path
         id="path26"
         style="fill:#104076;fill-opacity:1;fill-rule:nonzero;stroke:none"
         d="m 1730.94,675.297 h -47.18 c -2.9,0 -3.37,0.973 -3.37,3.871 v 11.859 c 0,2.657 0.47,3.868 3.37,3.868 h 118.55 c 2.89,0 3.38,-1.211 3.38,-3.868 v -11.859 c 0,-2.898 -0.49,-3.871 -3.38,-3.871 h -48.62 V 529.664 c 0,-3.379 -1.21,-4.109 -4.37,-4.109 h -13.79 c -3.13,0 -4.59,0.73 -4.59,4.109 v 145.633" /><path
         id="path28"
         style="fill:#104076;fill-opacity:1;fill-rule:nonzero;stroke:none"
         d="m 1923.99,618.449 c 20.08,-6.769 27.81,-25.16 27.81,-42.582 0,-29.98 -23.94,-50.312 -54.9,-50.312 h -57.34 c -8.7,0 -12.33,3.625 -12.33,12.09 v 145.156 c 0,8.469 3.14,12.34 12.33,12.34 l 53.94,0.238 c 29.51,0 51.05,-12.098 51.05,-41.609 0,-14.52 -7.99,-27.579 -20.56,-33.629 z m -74.51,8.461 h 44.51 c 10.64,0 27.58,4.602 27.58,25.414 0,13.535 -9.92,22.739 -25.65,22.739 h -46.44 z m 44.99,-18.621 h -44.99 v -62.402 h 44.99 c 27.82,0 34.6,18.867 34.6,31.679 0,18.145 -12.1,30.723 -34.6,30.723" /><path
         id="path30"
         style="fill:#104076;fill-opacity:1;fill-rule:nonzero;stroke:none"
         d="m 2040.1,522.898 c -47.41,0 -71.36,31.204 -71.36,87.09 0,56.117 30.48,87.559 71.85,87.559 47.41,0 72.09,-32.652 72.09,-86.602 0,-56.355 -24.92,-88.047 -72.58,-88.047 m 1.21,154.821 c -34.6,0 -50.32,-30.719 -50.32,-66.774 0,-39.902 11.62,-68.222 49.35,-68.222 37.74,0 49.59,32.422 49.59,67.265 0,35.309 -9.18,67.731 -48.62,67.731" /><path
         id="path32"
         style="fill:#104076;fill-opacity:1;fill-rule:nonzero;stroke:none"
         d="m 944.836,321.395 c 4.535,1.925 5.977,0.722 7.414,-2.872 l 8.141,-17.226 c 2.144,-4.531 1.429,-6.211 -1.442,-7.891 -17.226,-10.527 -36.836,-13.41 -55.265,-13.41 -52.168,0 -75.383,32.297 -75.383,85.434 0,52.156 31.125,87.09 77.051,87.09 16.269,0 32.058,-2.153 46.898,-10.286 3.594,-1.914 4.074,-3.117 1.922,-8.379 l -7.43,-16.503 c -1.668,-4.317 -2.621,-5.262 -7.172,-3.594 -11.48,4.07 -20.586,6.222 -32.55,6.222 -26.317,0 -40.418,-23.449 -40.418,-54.55 0,-31.106 10.277,-52.395 41.382,-52.395 15.079,0 26.559,4.531 36.852,8.36" /><path
         id="path34"
         style="fill:#104076;fill-opacity:1;fill-rule:nonzero;stroke:none"
         d="m 1098.91,419.031 h -43.3 V 287.664 c 0,-4.062 -0.97,-5.027 -5.75,-5.027 h -25.61 c -3.82,0 -5.5,1.199 -5.5,5.027 v 131.367 h -42.355 c -3.344,0 -4.54,1.438 -4.54,4.785 v 21.289 c 0,4.063 0.958,5.032 4.54,5.032 h 122.515 c 3.82,0 4.79,-0.969 4.79,-5.032 v -21.289 c 0,-3.347 -1.43,-4.785 -4.79,-4.785" /><path
         id="path36"
         style="fill:#104076;fill-opacity:1;fill-rule:nonzero;stroke:none"
         d="m 1160.62,287.664 c 0,-4.316 -0.95,-5.027 -5.73,-5.027 h -25.13 c -3.83,0 -5.5,1.199 -5.5,5.027 V 435.77 c 0,8.847 2.87,14.609 14.35,14.609 h 58.63 c 34.68,0 55.98,-22.031 55.98,-52.422 0,-16.25 -6.94,-54.543 -60.77,-54.543 h -31.83 z m 31.11,130.645 h -31.11 V 372.84 h 31.35 c 16.27,0 23.69,10.058 23.69,22.734 0,9.102 -4.55,22.735 -23.93,22.735" /><path
         id="path38"
         style="fill:#104076;fill-opacity:1;fill-rule:nonzero;stroke:none"
         d="m 1344.38,317.566 h -54.8 l -9.33,-30.39 c -0.96,-3.106 -2.16,-4.531 -6.7,-4.531 h -27.99 c -3.35,0 -4.07,2.382 -3.35,4.785 l 49.77,150.019 c 3.34,11.016 7.65,12.93 17.47,13.156 h 14.34 c 10.78,0 14.85,-1.437 18.67,-13.156 l 49.77,-150.019 c 0.72,-1.914 0.24,-4.785 -3.11,-4.785 h -28.47 c -3.6,0 -5.98,0.468 -6.94,3.82 z m -46.18,29.676 h 37.57 l -9.11,30.395 -8.85,34.207 h -1.44 l -9.08,-34.207 -9.09,-30.395" /><path
         id="path40"
         style="fill:#104076;fill-opacity:1;fill-rule:nonzero;stroke:none"
         d="m 1513.54,419.031 h -43.32 V 287.664 c 0,-4.062 -0.95,-5.027 -5.74,-5.027 h -25.59 c -3.84,0 -5.52,1.199 -5.52,5.027 v 131.367 h -42.34 c -3.34,0 -4.55,1.438 -4.55,4.785 v 21.289 c 0,4.063 0.96,5.032 4.55,5.032 h 122.51 c 3.82,0 4.78,-0.969 4.78,-5.032 v -21.289 c 0,-3.347 -1.44,-4.785 -4.78,-4.785" /><path
         id="path42"
         style="fill:#104076;fill-opacity:1;fill-rule:nonzero;stroke:none"
         d="m 1653.97,282.645 h -70.82 c -35.41,0 -44.27,22.246 -44.27,44.011 v 79.446 c 0,22.722 11.73,44.265 44.03,44.265 h 68.66 c 3.85,0 4.55,-1.199 4.55,-5.738 v -20.344 c 0,-4.062 -0.94,-5.254 -4.55,-5.254 h -60.75 c -12.46,0 -15.56,-6.472 -15.56,-14.843 V 385.77 h 68.67 c 3.83,0 4.53,-1.2 4.53,-5.743 v -18.672 c 0,-3.828 -0.7,-5.496 -4.53,-5.496 h -68.67 v -27.277 c 0,-11.016 5.49,-14.355 15.56,-14.355 h 63.15 c 4.07,0 4.78,-0.957 4.78,-5.743 v -20.332 c 0,-3.847 -0.95,-5.507 -4.78,-5.507" /><path
         id="path44"
         style="fill:#104076;fill-opacity:1;fill-rule:nonzero;stroke:none"
         d="m 1721.91,287.664 c 0,-4.316 -0.71,-5.027 -5.52,-5.027 h -25.34 c -3.84,0 -5.52,1.199 -5.52,5.027 v 118.438 c 0,22.734 11.02,44.277 44.03,44.277 h 68.9 c 4.08,0 4.81,-1.211 4.81,-5.762 v -20.332 c 0,-4.07 -0.96,-5.262 -4.81,-5.262 h -60.99 c -12.45,0 -15.56,-6.222 -15.56,-14.835 V 287.664" /><path
         id="path46"
         style="fill:#104076;fill-opacity:1;fill-rule:nonzero;stroke:none"
         d="m 1928.15,394.617 -21.29,-35.898 -40.45,-65.559 c -5.5,-8.855 -8.12,-10.515 -17.94,-10.515 h -9.58 c -12.42,0 -15.54,6.457 -15.54,16.503 v 146.68 c 0,3.34 1.44,4.539 5.02,4.539 h 25.62 c 4.3,0 5.02,-0.957 5.02,-4.539 V 338.152 h 1.42 l 20.35,33.496 41.38,67.95 c 5.52,9.101 8.14,10.769 17.71,10.769 h 9.81 c 11.73,0 15.56,-4.304 15.56,-16.746 V 287.176 c 0,-3.34 -1.44,-4.531 -5.04,-4.531 h -25.59 c -4.31,0 -5.27,0.957 -5.27,4.531 v 107.441 h -1.19" /><path
         id="path48"
         style="fill:#104076;fill-opacity:1;fill-rule:nonzero;stroke:none"
         d="m 2120.03,282.645 h -26.08 c -3.83,0 -5.02,1.191 -5.02,4.543 v 54.304 c -9.34,-1.426 -19.38,-2.148 -28.48,-2.148 -49.76,0 -67.49,22.969 -67.49,59.824 v 46.66 c 0,3.34 1.44,4.539 5.04,4.539 h 26.32 c 4.07,0 5.02,-0.965 5.02,-4.539 v -43.086 c 0,-22.48 11.49,-31.328 35.9,-31.328 7.65,0 16.02,0.703 23.69,2.149 v 72.265 c 0,3.34 1.19,4.539 5.02,4.539 h 26.08 c 4.31,0 5.27,-0.965 5.27,-4.539 v -158.64 c 0,-3.586 -0.96,-4.543 -5.27,-4.543" /><path
         id="path50"
         style="fill:#104076;fill-opacity:1;fill-rule:nonzero;stroke:none"
         d="m 2276.25,282.645 h -70.82 c -35.41,0 -44.25,22.246 -44.25,44.011 v 79.446 c 0,22.722 11.72,44.265 44.02,44.265 h 68.67 c 3.83,0 4.54,-1.199 4.54,-5.738 v -20.344 c 0,-4.062 -0.95,-5.254 -4.54,-5.254 h -60.78 c -12.44,0 -15.56,-6.472 -15.56,-14.843 V 385.77 h 68.69 c 3.81,0 4.55,-1.2 4.55,-5.743 v -18.672 c 0,-3.828 -0.74,-5.496 -4.55,-5.496 h -68.69 v -27.277 c 0,-11.016 5.5,-14.355 15.56,-14.355 h 63.16 c 4.08,0 4.79,-0.957 4.79,-5.743 v -20.332 c 0,-3.847 -0.96,-5.507 -4.79,-5.507" /><path
         id="path52"
         style="fill:#104076;fill-opacity:1;fill-rule:nonzero;stroke:none"
         d="m 2414.78,321.395 c 4.55,1.925 5.99,0.722 7.42,-2.872 l 8.14,-17.226 c 2.15,-4.531 1.43,-6.211 -1.44,-7.891 -17.23,-10.527 -36.84,-13.41 -55.26,-13.41 -52.18,0 -75.39,32.297 -75.39,85.434 0,52.156 31.12,87.09 77.05,87.09 16.27,0 32.07,-2.153 46.9,-10.286 3.59,-1.914 4.07,-3.117 1.93,-8.379 l -7.45,-16.503 c -1.66,-4.317 -2.61,-5.262 -7.16,-3.594 -11.48,4.07 -20.58,6.222 -32.54,6.222 -26.32,0 -40.43,-23.449 -40.43,-54.55 0,-31.106 10.28,-52.395 41.38,-52.395 15.08,0 26.57,4.531 36.85,8.36" /><path
         id="path54"
         style="fill:#104076;fill-opacity:1;fill-rule:nonzero;stroke:none"
         d="m 2554.03,371.883 c 16.51,-5.496 20.58,-14.824 24.16,-28.945 l 14.83,-55.528 c 0.49,-1.66 0.73,-4.773 -3.34,-4.773 h -27.76 c -1.66,0 -3.83,0.242 -4.78,3.347 l -14.6,51.446 c -4.78,16.515 -13.16,20.097 -29.91,20.097 h -19.62 l 0.24,-71.054 c 0,-3.36 -1.19,-3.836 -4.3,-3.836 h -27.75 c -2.87,0 -4.32,0.476 -4.32,3.836 v 159.824 c 0,3.359 1.45,3.84 4.32,3.84 h 27.98 c 3.11,0 4.31,-0.481 3.83,-3.84 v -61.016 h 19.14 c 9.58,0 22.25,1.922 27.52,21.535 l 10.77,40.45 c 0.72,3.093 3.1,3.339 4.78,3.339 h 26.8 c 4.08,0 3.82,-3.109 3.36,-4.777 l -11,-42.832 c -3.13,-13.406 -10.29,-23.926 -20.35,-29.91 v -1.203" /><path
         id="path56"
         style="fill:#104076;fill-opacity:1;fill-rule:nonzero;stroke:none"
         d="m 2722.93,394.617 -21.29,-35.898 -40.43,-65.559 c -5.51,-8.855 -8.14,-10.515 -17.95,-10.515 h -9.57 c -12.45,0 -15.55,6.457 -15.55,16.503 v 146.68 c 0,3.34 1.44,4.539 5.03,4.539 h 25.58 c 4.32,0 5.04,-0.957 5.04,-4.539 V 338.152 h 1.43 l 20.33,33.496 41.41,67.95 c 5.51,9.101 8.12,10.769 17.69,10.769 h 9.83 c 11.72,0 15.54,-4.304 15.54,-16.746 V 287.176 c 0,-3.34 -1.43,-4.531 -5.02,-4.531 h -25.6 c -4.32,0 -5.26,0.957 -5.26,4.531 v 107.441 h -1.21" /><path
         id="path58"
         style="fill:#104076;fill-opacity:1;fill-rule:nonzero;stroke:none"
         d="m 2851.65,340.066 -28.95,-51.914 c -2.88,-4.316 -4.55,-5.515 -10.53,-5.515 h -29.43 c -2.87,0 -3.57,2.644 -2.38,4.773 l 50.95,82.324 -46.66,76.094 c -1.42,1.914 -0.71,4.531 2.87,4.531 h 28.01 c 6.22,0 7.89,-0.957 10.3,-5.254 l 26.31,-46.66 26.07,46.66 c 2.39,4.297 4.07,5.254 10.3,5.254 h 27.5 c 3.6,0 4.07,-2.617 2.65,-4.773 l -46.17,-75.617 50.95,-82.559 c 1.19,-2.129 0.24,-4.773 -2.4,-4.773 h -29.9 c -5.74,0 -7.66,1.199 -10.3,5.515 l -29.19,51.914" /><path
         id="path60"
         style="fill:#104076;fill-opacity:1;fill-rule:nonzero;stroke:none"
         d="m 947.465,151.699 -21.297,-35.898 -40.43,-65.5627 c -5.508,-8.8477 -8.14,-10.5195 -17.949,-10.5195 h -9.57 c -12.453,0 -15.551,6.4609 -15.551,16.5 V 202.898 c 0,3.352 1.43,4.551 5.027,4.551 h 25.59 c 4.313,0 5.031,-0.961 5.031,-4.551 V 95.2305 h 1.43 l 20.344,33.4995 41.398,67.95 c 5.508,9.101 8.129,10.769 17.7,10.769 h 9.82 c 11.719,0 15.539,-4.308 15.539,-16.75 V 44.2695 c 0,-3.3398 -1.434,-4.5507 -5.02,-4.5507 h -25.601 c -4.309,0 -5.258,0.9609 -5.258,4.5507 V 151.699 h -1.203" /><path
         id="path62"
         style="fill:#104076;fill-opacity:1;fill-rule:nonzero;stroke:none"
         d="m 1152.5,39.7188 h -25.11 c -4.07,0 -5.51,1.2031 -5.51,5.0195 v 66.9997 h -64.84 V 44.7383 c 0,-4.0586 -0.97,-5.0195 -5.75,-5.0195 h -25.37 c -3.82,0 -5.49,1.2031 -5.49,5.0195 V 202.191 c 0,3.829 1.67,5.02 5.49,5.02 h 25.37 c 4.78,0 5.75,-0.961 5.75,-5.02 v -59.582 h 64.84 v 59.582 c 0,3.829 1.44,5.02 5.51,5.02 h 25.11 c 4.79,0 5.75,-0.961 5.75,-5.02 V 44.7383 c 0,-4.0586 -0.96,-5.0195 -5.75,-5.0195" /><path
         id="path64"
         style="fill:#104076;fill-opacity:1;fill-rule:nonzero;stroke:none"
         d="m 1298.92,151.699 -21.29,-35.898 -40.44,-65.5627 c -5.5,-8.8477 -8.13,-10.5195 -17.94,-10.5195 h -9.58 c -12.43,0 -15.54,6.4609 -15.54,16.5 V 202.898 c 0,3.352 1.44,4.551 5.02,4.551 h 25.61 c 4.3,0 5.02,-0.961 5.02,-4.551 V 95.2305 h 1.43 l 20.34,33.4995 41.39,67.95 c 5.51,9.101 8.14,10.769 17.7,10.769 h 9.82 c 11.72,0 15.55,-4.308 15.55,-16.75 V 44.2695 c 0,-3.3398 -1.43,-4.5507 -5.03,-4.5507 h -25.59 c -4.31,0 -5.27,0.9609 -5.27,4.5507 V 151.699 h -1.2" /><path
         id="path66"
         style="fill:#104076;fill-opacity:1;fill-rule:nonzero;stroke:none"
         d="m 1509.47,71.7891 11.96,-1.211 c 8.62,-0.707 9.34,-4.7773 9.1,-10.5078 L 1527.9,4.78125 C 1527.66,1.67188 1526.45,0 1523.34,0 h -20.09 c -3.34,0 -4.54,1.44141 -4.79,5.01953 l -1.43,34.69927 h -109.82 c -11.01,0 -15.33,5.2617 -15.33,16.0312 v 147.148 c 0,3.352 1.45,4.551 5.03,4.551 h 26.33 c 4.3,0 5.26,-0.961 5.26,-4.551 V 71.0586 h 64.59 V 202.898 c 0,3.352 1.45,4.551 4.8,4.551 h 26.31 c 4.55,0 5.27,-0.961 5.27,-4.551 V 71.7891" /><path
         id="path68"
         style="fill:#104076;fill-opacity:1;fill-rule:nonzero;stroke:none"
         d="m 1654.69,151.699 -21.29,-35.898 -40.45,-65.5627 c -5.5,-8.8477 -8.12,-10.5195 -17.94,-10.5195 h -9.58 c -12.42,0 -15.53,6.4609 -15.53,16.5 V 202.898 c 0,3.352 1.43,4.551 5.02,4.551 h 25.61 c 4.3,0 5,-0.961 5,-4.551 V 95.2305 h 1.45 l 20.33,33.4995 41.4,67.95 c 5.5,9.101 8.13,10.769 17.7,10.769 h 9.82 c 11.71,0 15.55,-4.308 15.55,-16.75 V 44.2695 c 0,-3.3398 -1.43,-4.5507 -5.04,-4.5507 h -25.58 c -4.32,0 -5.28,0.9609 -5.28,4.5507 V 151.699 h -1.19" /><path
         id="path70"
         style="fill:#104076;fill-opacity:1;fill-rule:nonzero;stroke:none"
         d="m 1810.44,74.6602 h -54.79 l -9.34,-30.3907 c -0.95,-3.1211 -2.14,-4.5507 -6.69,-4.5507 h -27.99 c -3.36,0 -4.07,2.4023 -3.36,4.7812 l 49.77,150.02 c 3.34,11.031 7.65,12.929 17.47,13.16 h 14.36 c 10.76,0 14.83,-1.418 18.67,-13.16 L 1858.31,44.5 c 0.7,-1.8984 0.23,-4.7812 -3.11,-4.7812 h -28.49 c -3.58,0 -5.98,0.4726 -6.92,3.8203 z m -46.18,29.6598 h 37.57 l -9.09,30.399 -8.86,34.203 h -1.43 l -9.09,-34.203 -9.1,-30.399" /><path
         id="path72"
         style="fill:#104076;fill-opacity:1;fill-rule:nonzero;stroke:none"
         d="m 1979.59,176.102 h -43.3 V 44.7383 c 0,-4.0586 -0.96,-5.0195 -5.76,-5.0195 h -25.58 c -3.84,0 -5.51,1.2031 -5.51,5.0195 V 176.102 h -42.35 c -3.34,0 -4.55,1.449 -4.55,4.796 v 21.293 c 0,4.071 0.96,5.028 4.55,5.028 h 122.5 c 3.83,0 4.79,-0.957 4.79,-5.028 v -21.293 c 0,-3.347 -1.43,-4.796 -4.79,-4.796" /><path
         id="path74"
         style="fill:#104076;fill-opacity:1;fill-rule:nonzero;stroke:none"
         d="m 2109.75,151.699 -21.31,-35.898 -40.43,-65.5627 c -5.51,-8.8477 -8.13,-10.5195 -17.95,-10.5195 h -9.57 c -12.44,0 -15.54,6.4609 -15.54,16.5 V 202.898 c 0,3.352 1.42,4.551 5.03,4.551 h 25.59 c 4.31,0 5.02,-0.961 5.02,-4.551 V 95.2305 h 1.44 l 20.34,33.4995 41.39,67.95 c 5.52,9.101 8.14,10.769 17.71,10.769 h 9.82 c 11.72,0 15.53,-4.308 15.53,-16.75 V 44.2695 c 0,-3.3398 -1.42,-4.5507 -5.02,-4.5507 h -25.59 c -4.31,0 -5.27,0.9609 -5.27,4.5507 V 151.699 h -1.19" /><path
         id="path76"
         style="fill:#104076;fill-opacity:1;fill-rule:nonzero;stroke:none"
         d="m 2288.72,131.371 c 18.18,-7.18 25.58,-24.422 25.58,-40.6913 0,-30.3906 -25.12,-50.9609 -57.18,-50.9609 h -60.04 c -11.49,0 -14.36,4.3007 -14.36,14.5898 V 192.621 c 0,10.039 2.87,14.828 14.36,14.828 h 58.62 c 28.95,0 51.43,-12.199 51.43,-42.34 0,-13.168 -7.65,-26.097 -18.41,-32.07 z m -69.63,12.438 h 32.54 c 7.9,0 17.95,3.101 17.95,16.5 0,9.57 -6.47,15.312 -16.76,15.312 h -33.73 z m 34.45,-29.207 h -34.45 V 71.7891 h 34.45 c 18.18,0 23.22,12.1914 23.22,21.2812 0,12.6797 -8.14,21.5317 -23.22,21.5317" /><g
         id="g78"><g
           clip-path="url(#clipPath84)"
           id="g80"><g
             clip-path="url(#clipPath90)"
             id="g86"><path
               id="path98"
               style="fill:url(#linearGradient96);fill-opacity:1;fill-rule:nonzero;stroke:none"
               d="m 747,956 v 1 h -2 v 1 h -1 v 1 h -2 v 1 h -2 v 1 h -2 v 1 h -1 v 1 h -2 v 1 h -2 v 1 h -2 v 1 h -1 v 1 h -2 v 1 h -2 v 1 h -2 v 1 h -1 v 1 h -2 v 1 h -2 v 1 h -2 v 1 h -1 v 1 h -2 v 1 h -2 v 1 h -1 v 1 h -2 v 1 h -2 v 1 h -2 v 1 h -1 v 1 h -2 v 1 h -2 v 1 h -2 v 1 h -1 v 1 h -2 v 1 h -2 v 1 h -2 v 1 h -1 v 1 h -2 v 1 h -2 v 1 h -2 v 1 h -1 v 1 h -2 v 1 h -2 v 1 h -1 v 1 h -2 v 1 h -2 v 1 h -2 v 1 h -1 v 1 h -2 v 1 h -2 v 1 h -2 v 1 h -1 v 1 h -2 v 1 h -2 v 1 h -2 v 1 h -1 v 1 h -2 v 1 h -2 v 1 h -2 v 1 h -1 v 1 h -2 v 1 h -2 v 1 h -1 v 1 h -2 v 1 h -2 v 1 h -2 v 1 h -1 v 1 h -2 v 1 h -2 v 1 h -2 v 1 h -1 v 1 h -2 v 1 h -2 v 1 h -2 v 1 h -1 v 1 h -2 v 1 h -2 v 1 h -2 v 1 h -1 v 1 h -2 v 1 h -2 v 1 h -1 v 1 h -2 v 1 h -2 v 1 h -2 v 1 h -1 v 1 h -2 v 1 h -2 v 1 h -2 v 1 h -1 v 1 h -2 v 1 h -2 v 1 h -2 v 1 h -1 v 1 h -2 v 1 h -2 v 1 h -1 v 1 h -2 v 1 h -2 v 1 h -2 v 1 h -1 v 1 h -2 v 1 h -2 v 1 h -2 v 1 h -1 v 1 h -2 v 1 h -2 v 1 h -2 v 1 h -1 v 1 h -2 v 1 h -2 v 1 h -2 v 1 h -1 v 1 h -2 v 1 h -2 v 1 h -1 v 1 h -2 v 1 h -2 v 1 h -2 v 1 h -1 v 1 h -2 v 1 h -2 v 1 h -2 v 1 h -1 v 1 h -2 v 1 h -2 v 1 h -2 v 1 h -1 v 1 h -2 v 1 h -2 v 1 h -2 v 1 h -1 v 1 h -2 v 1 h -2 v 1 h -1 v 1 h -2 v 1 h -2 v 1 h -2 v 1 h -1 v 1 h -2 v 1 h -2 v 1 h -2 v 1 h -1 v 1 h -2 v 1 h -2 v 1 h -2 v 1 h -1 v 1 h -2 v 1 h -2 v 1 h -2 v 1 h -1 v 1 h -2 v 1 h -2 v 1 h -1 v 1 h -2 v 1 h -2 v 1 h -2 v 1 h -1 v 1 h -2 v 1 h -2 v 1 h -2 v 1 h -1 v 1 h -2 v 1 h -2 v 1 h -2 v 1 h -1 v 1 h -2 v 1 h -2 v 1 h -2 v 1 h -1 v 1 h -2 v 1 h -2 v 1 h -1 v 1 h -2 v 1 h -2 v 1 h -1 v 1 h 5 v -1 h 5 v -1 h 6 v -1 h 5 v -1 h 5 v -1 h 5 v -1 h 5 v -1 h 6 v -1 h 5 v -1 h 5 v -1 h 5 v -1 h 6 v -1 h 5 v -1 h 5 v -1 h 5 v -1 h 6 v -1 h 5 v -1 h 5 v -1 h 5 v -1 h 5 v -1 h 6 v -1 h 5 v -1 h 5 v -1 h 5 v -1 h 6 v -1 h 5 v -1 h 5 v -1 h 5 v -1 h 6 v -1 h 5 v -1 h 5 v -1 h 5 v -1 h 5 v -1 h 6 v -1 h 5 v -1 h 5 v -1 h 5 v -1 h 6 v -1 h 5 v -1 h 5 v -1 h 5 v -1 h 6 v -1 h 5 v -1 h 5 v -1 h 5 v -1 h 5 v -1 h 6 v -1 h 5 v -1 h 5 v -1 h 5 v -1 h 6 v -1 h 5 v -1 h 5 v -1 h 5 v -1 h 6 v -1 h 5 v -1 h 5 v -1 h 5 v -1 h 5 v -1 h 6 v -1 h 5 v -1 h 5 v -1 h 5 v -1 h 6 v -1 h 5 v -1 h 5 v -1 h 5 v -1 h 6 v -1 h 5 v -1 h 5 v -1 h 5 v -1 h 5 v -1 h 6 v -1 h 5 v -1 h 5 v -1 h 5 v -1 h 6 v -1 h 5 v -1 h 5 v -1 h 5 v -1 h 6 v -1 h 5 v -1 h 5 v -1 h 5 v -1 h 5 v -1 h 6 v -2 h -2 v -1 h -2 v -1 h -1 v -1 h -2 v -1 h -2 v -1 h -2 v -1 h -1 v -1 h -2 v -1 h -2 v -1 h -2 v -1 h -1 v -1 h -2 v -1 h -2 v -1 h -1 v -1 h -2 v -1 h -2 v -1 h -2 v -1 h -1 v -1 h -2 v -1 h -2 v -1 h -2 v -1 h -1 v -1 h -2 v -1 h -2 v -1 h -1 v -1 h -2 v -1 h -2 v -1 h -2 v -1 h -1 v -1 h -2 v -1 h -2 v -1 h -2 v -1 h -1 v -1 h -2 v -1 h -2 v -1 h -1 v -1 h -2 v -1 h -2 v -1 h -2 v -1 h -1 v -1 h -2 v -1 h -2 v -1 h -2 v -1 h -1 v -1 h -2 v -1 h -2 v -1 h -1 v -1 h -2 v -1 h -2 v -1 h -2 v -1 h -1 v -1 h -2 v -1 h -2 v -1 h -2 v -1 h -1 v -1 h -2 v -1 h -2 v -1 h -1 v -1 h -2 v -1 h -2 v -1 h -2 v -1 h -1 v -1 h -2 v -1 h -2 v -1 h -2 v -1 h -1 v -1 h -2 v -1 h -2 v -1 h -1 v -1 h -2 v -1 h -2 v -1 h -2 v -1 h -1 v -1 h -2 v -1 h -2 v -1 h -2 v -1 h -1 v -1 h -2 v -1 h -2 v -1 h -1 v -1 h -2 v -1 h -2 v -1 h -2 v -1 h -1 v -1 h -2 v -1 h -2 v -1" /></g></g></g><g
         id="g100"><g
           clip-path="url(#clipPath106)"
           id="g102"><g
             clip-path="url(#clipPath112)"
             id="g108"><path
               id="path120"
               style="fill:url(#linearGradient118);fill-opacity:1;fill-rule:nonzero;stroke:none"
               d="m 298,1042 v 1 h -2 v 1 h -2 v 1 h -2 v 1 h -1 v 1 h -2 v 1 h -2 v 1 h -1 v 1 h -2 v 1 h -2 v 1 h -2 v 1 h -1 v 1 h -2 v 1 h -2 v 1 h -2 v 1 h -1 v 1 h -2 v 1 h -2 v 1 h -2 v 1 h -1 v 1 h -2 v 1 h -2 v 1 h -2 v 1 h -1 v 1 h -2 v 1 h -2 v 1 h -1 v 1 h -2 v 1 h -2 v 1 h -2 v 1 h -1 v 1 h -2 v 1 h -2 v 1 h -2 v 1 h -1 v 1 h -2 v 1 h -2 v 1 h -2 v 1 h -1 v 1 h -2 v 1 h -2 v 1 h -2 v 1 h -1 v 1 h -2 v 1 h -2 v 1 h -1 v 1 h -2 v 1 h -2 v 1 h -2 v 1 h -1 v 1 h -2 v 1 h -2 v 1 h -2 v 1 h -1 v 1 h -2 v 1 h -2 v 1 h -2 v 1 h -1 v 1 h -2 v 1 h -2 v 1 h -2 v 1 h -1 v 1 h -2 v 1 h -2 v 1 h -1 v 1 h -2 v 1 h -2 v 1 h -2 v 1 h -1 v 1 h -2 v 1 h -2 v 1 h -2 v 1 h -1 v 1 h -2 v 1 h -2 v 1 h -2 v 1 h -1 v 1 h -2 v 1 h -2 v 1 h -1 v 1 h -2 v 1 h -2 v 1 h -2 v 1 h -1 v 1 h -2 v 1 h -2 v 1 h -2 v 1 h -1 v 1 h -2 v 1 h -2 v 1 h -2 v 1 h -1 v 1 h -2 v 1 h -2 v 1 h -2 v 1 h -1 v 1 h -2 v 1 h -2 v 1 h -1 v 1 h -2 v 1 h -2 v 1 h -2 v 1 h -1 v 1 h -2 v 1 h -2 v 1 h -2 v 1 h -1 v 1 h -2 v 1 h -2 v 1 h -2 v 1 h -1 v 1 h -2 v 1 h -2 v 1 h -2 v 1 h -1 v 1 h -2 v 1 h -2 v 1 h -1 v 1 h -2 v 1 h -2 v 1 h -2 v 1 h -1 v 1 h -2 v 1 h -2 v 1 h -2 v 1 h -1 v 1 h -2 v 1 h -2 v 1 h -2 v 1 h -1 v 1 h -2 v 1 h -2 v 1 h -2 v 1 h -1 v 1 h -2 v 1 h -2 v 1 h -1 v 1 h -2 v 1 h -2 v 1 h -2 v 1 h -1 v 1 h -2 v 1 h -2 v 1 h -2 v 1 h -1 v 1 h -2 v 1 h -2 v 1 h -2 v 1 h -1 v 1 h -2 v 1 h -2 v 1 h -2 v 1 h -1 v 1 h -2 v 1 h -2 v 1 h -1 v 1 h -2 v 1 h -2 v 1 h -2 v 1 h -1 v 1 h -2 v 1 h -2 v 1 h -2 v 1 h -1 v 1 h -2 v 1 h -2 v 1 H 9 v 1 H 8 v 1 H 6 v 1 H 4 v 1 H 2 v 1 H 1 v 1 H 0 v 1 h 4 v -1 h 5 v -1 h 6 v -1 h 5 v -1 h 5 v -1 h 5 v -1 h 6 v -1 h 5 v -1 h 5 v -1 h 5 v -1 h 6 v -1 h 5 v -1 h 5 v -1 h 5 v -1 h 5 v -1 h 6 v -1 h 5 v -1 h 5 v -1 h 5 v -1 h 6 v -1 h 5 v -1 h 5 v -1 h 5 v -1 h 6 v -1 h 5 v -1 h 5 v -1 h 5 v -1 h 5 v -1 h 6 v -1 h 5 v -1 h 5 v -1 h 5 v -1 h 6 v -1 h 5 v -1 h 5 v -1 h 5 v -1 h 6 v -1 h 5 v -1 h 5 v -1 h 5 v -1 h 6 v -1 h 5 v -1 h 5 v -1 h 5 v -1 h 5 v -1 h 6 v -1 h 5 v -1 h 5 v -1 h 5 v -1 h 6 v -1 h 5 v -1 h 5 v -1 h 5 v -1 h 6 v -1 h 5 v -1 h 5 v -1 h 5 v -1 h 5 v -1 h 6 v -1 h 5 v -1 h 5 v -1 h 5 v -1 h 6 v -1 h 5 v -1 h 5 v -1 h 5 v -1 h 6 v -1 h 5 v -1 h 5 v -1 h 5 v -1 h 5 v -1 h 6 v -1 h 5 v -1 h 5 v -1 h 5 v -1 h 6 v -1 h 5 v -1 h 5 v -1 h 5 v -1 h 6 v -1 h 5 v -1 h 5 v -1 h 5 v -1 h 5 v -1 h 6 v -1 h 5 v -1 h 1 v -1 h -2 v -1 h -2 v -1 h -1 v -1 h -2 v -1 h -2 v -1 h -1 v -1 h -2 v -1 h -2 v -1 h -2 v -1 h -1 v -1 h -2 v -1 h -2 v -1 h -2 v -1 h -1 v -1 h -2 v -1 h -2 v -1 h -1 v -1 h -2 v -1 h -2 v -1 h -2 v -1 h -1 v -1 h -2 v -1 h -2 v -1 h -2 v -1 h -1 v -1 h -2 v -1 h -2 v -1 h -1 v -1 h -2 v -1 h -2 v -1 h -2 v -1 h -1 v -1 h -2 v -1 h -2 v -1 h -2 v -1 h -1 v -1 h -2 v -1 h -2 v -1 h -1 v -1 h -2 v -1 h -2 v -1 h -2 v -1 h -1 v -1 h -2 v -1 h -2 v -1 h -2 v -1 h -1 v -1 h -2 v -1 h -2 v -1 h -1 v -1 h -2 v -1 h -2 v -1 h -2 v -1 h -1 v -1 h -2 v -1 h -2 v -1 h -2 v -1 h -1 v -1 h -2 v -1 h -2 v -1 h -1 v -1 h -2 v -1 h -2 v -1 h -2 v -1 h -1 v -1 h -2 v -1 h -2 v -1 h -2 v -1 h -1 v -1 h -2 v -1 h -2 v -1 h -1 v -1 h -2 v -1 h -2 v -1 h -2 v -1 h -1 v -1 h -2 v -1 h -2 v -1 h -2 v -1 h -1 v -1 h -2 v -1 h -2 v -1 h -1 v -1 h -2 v -1 h -2 v -1 h -2 v -1" /></g></g></g><g
         id="g122"><g
           clip-path="url(#clipPath128)"
           id="g124"><g
             clip-path="url(#clipPath134)"
             id="g130"><path
               id="path142"
               style="fill:url(#linearGradient140);fill-opacity:1;fill-rule:nonzero;stroke:none"
               d="m 598,696 v 1 h -2 v 1 h -1 v 1 h -2 v 1 h -2 v 1 h -1 v 1 h -2 v 1 h -2 v 1 h -2 v 1 h -1 v 1 h -2 v 1 h -2 v 1 h -2 v 1 h -1 v 1 h -2 v 1 h -2 v 1 h -2 v 1 h -1 v 1 h -2 v 1 h -2 v 1 h -2 v 1 h -1 v 1 h -2 v 1 h -2 v 1 h -1 v 1 h -2 v 1 h -2 v 1 h -2 v 1 h -1 v 1 h -2 v 1 h -2 v 1 h -2 v 1 h -1 v 1 h -2 v 1 h -2 v 1 h -2 v 1 h -1 v 1 h -2 v 1 h -2 v 1 h -2 v 1 h -1 v 1 h -2 v 1 h -2 v 1 h -1 v 1 h -2 v 1 h -2 v 1 h -2 v 1 h -1 v 1 h -2 v 1 h -2 v 1 h -2 v 1 h -1 v 1 h -2 v 1 h -2 v 1 h -2 v 1 h -1 v 1 h -2 v 1 h -2 v 1 h -2 v 1 h -1 v 1 h -2 v 1 h -2 v 1 h -1 v 1 h -2 v 1 h -2 v 1 h -2 v 1 h -1 v 1 h -2 v 1 h -2 v 1 h -2 v 1 h -1 v 1 h -2 v 1 h -2 v 1 h -2 v 1 h -1 v 1 h -2 v 1 h -2 v 1 h -2 v 1 h -1 v 1 h -2 v 1 h -2 v 1 h -1 v 1 h -2 v 1 h -2 v 1 h -2 v 1 h -1 v 1 h -2 v 1 h -2 v 1 h -2 v 1 h -1 v 1 h -2 v 1 h -2 v 1 h -2 v 1 h -1 v 1 h -2 v 1 h -2 v 1 h -2 v 1 h -1 v 1 h -2 v 1 h -2 v 1 h -1 v 1 h -2 v 1 h -2 v 1 h -2 v 1 h -1 v 1 h -2 v 1 h -2 v 1 h -2 v 1 h -1 v 1 h -2 v 1 h -2 v 1 h -2 v 1 h -1 v 1 h -2 v 1 h -2 v 1 h -1 v 1 h -2 v 1 h -2 v 1 h -2 v 1 h -1 v 1 h -2 v 1 h -2 v 1 h -2 v 1 h -1 v 1 h -2 v 1 h -2 v 1 h -2 v 1 h -1 v 1 h -2 v 1 h -2 v 1 h -2 v 1 h -1 v 1 h -2 v 1 h -2 v 1 h -1 v 1 h -2 v 1 h -2 v 1 h -2 v 1 h -1 v 1 h -2 v 1 h -2 v 1 h -2 v 1 h -1 v 1 h -2 v 1 h -2 v 1 h -2 v 1 h -1 v 1 h -2 v 1 h -2 v 1 h -2 v 1 h -1 v 1 h -2 v 1 h -2 v 1 h -1 v 1 h -2 v 1 h -2 v 1 h -2 v 1 h -1 v 1 h -2 v 1 h -2 v 1 h -2 v 1 h -1 v 1 h -2 v 1 h -2 v 1 h -2 v 1 h -1 v 1 h -2 v 1 h -2 v 1 h -2 v 1 h -1 v 1 h -2 v 1 h -2 v 1 h -1 v 1 h -1 v 1 h 2 v -1 h 5 v -1 h 6 v -1 h 5 v -1 h 5 v -1 h 5 v -1 h 6 v -1 h 5 v -1 h 5 v -1 h 5 v -1 h 6 v -1 h 5 v -1 h 5 v -1 h 5 v -1 h 5 v -1 h 6 v -1 h 5 v -1 h 5 v -1 h 5 v -1 h 6 v -1 h 5 v -1 h 5 v -1 h 5 v -1 h 6 v -1 h 5 v -1 h 5 v -1 h 5 v -1 h 5 v -1 h 6 v -1 h 5 v -1 h 5 v -1 h 5 v -1 h 6 v -1 h 5 v -1 h 5 v -1 h 5 v -1 h 6 v -1 h 5 v -1 h 5 v -1 h 5 v -1 h 5 v -1 h 6 v -1 h 5 v -1 h 5 v -1 h 5 v -1 h 6 v -1 h 5 v -1 h 5 v -1 h 5 v -1 h 6 v -1 h 5 v -1 h 5 v -1 h 5 v -1 h 5 v -1 h 6 v -1 h 5 v -1 h 5 v -1 h 5 v -1 h 6 v -1 h 5 v -1 h 5 v -1 h 5 v -1 h 6 v -1 h 5 v -1 h 5 v -1 h 5 v -1 h 5 v -1 h 6 v -1 h 5 v -1 h 5 v -1 h 5 v -1 h 6 v -1 h 5 v -1 h 5 v -1 h 5 v -1 h 6 v -1 h 5 v -1 h 5 v -1 h 5 v -1 h 5 v -1 h 6 v -1 h 5 v -1 h 5 v -1 h 5 v -1 h 6 v -1 h 5 v -1 h 3 v -2 h -2 v -1 h -2 v -1 h -1 v -1 h -2 v -1 h -2 v -1 h -2 v -1 h -1 v -1 h -2 v -1 h -2 v -1 h -2 v -1 h -1 v -1 h -2 v -1 h -2 v -1 h -1 v -1 h -2 v -1 h -2 v -1 h -2 v -1 h -1 v -1 h -2 v -1 h -2 v -1 h -2 v -1 h -1 v -1 h -2 v -1 h -2 v -1 h -1 v -1 h -2 v -1 h -2 v -1 h -2 v -1 h -1 v -1 h -2 v -1 h -2 v -1 h -2 v -1 h -1 v -1 h -2 v -1 h -2 v -1 h -1 v -1 h -2 v -1 h -2 v -1 h -2 v -1 h -1 v -1 h -2 v -1 h -2 v -1 h -2 v -1 h -1 v -1 h -2 v -1 h -2 v -1 h -1 v -1 h -2 v -1 h -2 v -1 h -2 v -1 h -1 v -1 h -2 v -1 h -2 v -1 h -2 v -1 h -1 v -1 h -2 v -1 h -2 v -1 h -1 v -1 h -2 v -1 h -2 v -1 h -2 v -1 h -1 v -1 h -2 v -1 h -2 v -1 h -2 v -1 h -1 v -1 h -2 v -1 h -2 v -1 h -1 v -1 h -2 v -1 h -2 v -1 h -2 v -1 h -1 v -1 h -2 v -1 h -2 v -1 h -2 v -1 h -1 v -1 h -2 v -1 h -2 v -1 h -1 v -1 h -2 v -1 h -2 v -1 h -2 v -1 h -1 v -1 h -2 v -1 h -2 v -1" /></g></g></g><path
         id="path144"
         style="fill:#1476c6;fill-opacity:1;fill-rule:nonzero;stroke:none"
         d="M 898.223,1042.99 748.754,783.313 748.586,956.367 Z" /><path
         id="path146"
         style="fill:#969ea4;fill-opacity:1;fill-rule:nonzero;stroke:none"
         d="M 748.809,783.34 599.359,523.66 599.18,696.707 Z" /><path
         id="path148"
         style="fill:#a20641;fill-opacity:1;fill-rule:nonzero;stroke:none"
         d="M 449.133,1128.86 299.691,869.18 299.504,1042.23 Z" /></g></g></svg>