<?xml version="1.0" encoding="utf-8"?>
<!DOCTYPE svg PUBLIC "-//W3C//DTD SVG 1.1//EN" "http://www.w3.org/Graphics/SVG/1.1/DTD/svg11.dtd">
<svg version="1.1" id="VARG" xmlns="http://www.w3.org/2000/svg" xmlns:xlink="http://www.w3.org/1999/xlink" x="0px" y="0px"
 width="278px" height="36px" viewBox="0 0 278 36" enable-background="new 0 0 278 36" xml:space="preserve">
<path d="M154.288,14.291c0,0.379-0.073,0.787-0.219,1.224c-0.146,0.438-0.357,0.875-0.634,1.312
c-0.277,0.438-0.671,0.867-1.181,1.29c-0.51,0.423-0.982,0.78-1.42,1.071c-0.321-0.583-0.612-1.202-0.874-1.857
c-0.263-0.656-0.394-1.304-0.394-1.946c0-0.379,0.095-0.801,0.284-1.267c0.189-0.466,0.415-0.831,0.678-1.093
c0.262-0.262,0.539-0.438,0.83-0.524c0.291-0.087,0.611-0.132,0.962-0.132c0.437,0,0.794,0.102,1.07,0.307
c0.276,0.204,0.458,0.379,0.546,0.525c0.087,0.145,0.175,0.32,0.262,0.524C154.259,13.956,154.288,14.146,154.288,14.291z
 M188.95,4.718c-0.904,0-1.604-0.073-2.099-0.218c-0.641,0.991-1.34,2.091-2.098,3.3c-0.757,1.209-1.529,2.375-2.316,3.497
c-0.787,1.122-1.552,2.186-2.295,3.191c-0.743,1.005-1.479,1.974-2.208,2.907l-2.054-6.688l-1.792-6.119
c-0.467,0.087-0.955,0.145-1.465,0.174c-0.51,0.03-1.027,0.045-1.551,0.045c-0.787,0-1.596-0.029-2.426-0.088
c-0.831-0.059-1.479-0.116-1.945-0.175l5.814,16.391l-2.404,12.414h6.294l2.404-12.938l6.818-9.048l5.201-6.775
C190.247,4.675,189.62,4.718,188.95,4.718z M42.303,33.349h16.129c0-0.03-0.029-0.102-0.087-0.219c0-0.116,0-0.247,0-0.394
c0-0.554,0.058-1.1,0.175-1.639c0.116-0.539,0.262-0.939,0.437-1.202c-0.758,0.088-1.581,0.168-2.47,0.24
c-0.889,0.073-1.756,0.109-2.601,0.109c-0.612,0-1.428,0.015-2.447,0.043c-1.021,0.03-1.764,0.044-2.23,0.044l2.186-10.928
c0.728,0.029,1.515,0.051,2.361,0.065c0.845,0.015,1.646,0.022,2.404,0.022c0.815,0,1.603,0.051,2.36,0.153
c0.757,0.102,1.529,0.196,2.316,0.284c0-0.67,0.065-1.348,0.196-2.032c0.131-0.686,0.313-1.203,0.547-1.552
c-0.846,0.088-1.713,0.161-2.601,0.219c-0.89,0.059-1.756,0.087-2.602,0.087c-0.903,0-1.72-0.007-2.448-0.022
c-0.728-0.015-1.37-0.022-1.923-0.022l1.705-9.092l4.895,0.088c0.845,0,1.646,0.066,2.404,0.196c0.758,0.132,1.53,0.27,2.317,0.415
c0-0.378,0.087-1.012,0.262-1.9s0.32-1.464,0.437-1.727H48.028L42.303,33.349z M159.227,22.247c-0.467,0.67-0.86,1.202-1.18,1.595
c-0.321,0.394-0.692,0.83-1.114,1.312c-0.423,0.48-0.925,0.983-1.508,1.508l-3.978-6.207c0.408-0.204,0.867-0.458,1.377-0.765
c0.51-0.307,1.035-0.692,1.573-1.158c0.539-0.467,0.911-0.809,1.115-1.027s0.422-0.524,0.656-0.918
c0.233-0.393,0.4-0.838,0.502-1.333c0.102-0.495,0.139-0.874,0.11-1.137c0-0.35-0.081-0.685-0.241-1.006
c-0.16-0.32-0.444-0.685-0.853-1.092c-0.408-0.408-0.896-0.692-1.464-0.852c-0.568-0.161-1.362-0.24-2.382-0.24
c-0.904,0-1.786,0.153-2.645,0.459c-0.859,0.306-1.733,0.903-2.622,1.792c-0.889,0.889-1.334,2.105-1.334,3.649
c0,0.991,0.183,1.931,0.547,2.819s0.634,1.479,0.809,1.771c-0.962,0.495-2.004,1.071-3.125,1.727
c-1.122,0.655-1.996,1.354-2.623,2.098c-0.627,0.743-1.049,1.42-1.268,2.032c-0.219,0.613-0.327,1.194-0.327,1.748
c0,0.321,0.043,0.671,0.131,1.05c0.087,0.379,0.226,0.751,0.416,1.115c0.189,0.364,0.517,0.75,0.983,1.158
c0.467,0.408,0.947,0.699,1.443,0.874c0.495,0.174,0.91,0.282,1.246,0.326c0.335,0.044,0.75,0.066,1.246,0.066h0.917
c0.408,0,0.904-0.066,1.486-0.197c0.583-0.13,1.202-0.326,1.858-0.589s1.246-0.539,1.77-0.831s1.049-0.612,1.574-0.962l1.224,2.317
h6.294l-3.541-5.333l2.491-2.447c0.495-0.524,1.012-1.057,1.551-1.596c0.54-0.539,1.027-1.071,1.465-1.595l-1.399-1.792
C160.087,21.023,159.693,21.576,159.227,22.247z M116.632,11.821c-0.947-0.394-1.989-0.59-3.126-0.59
c-2.272,0-4.261,0.751-5.966,2.251c-1.705,1.501-2.557,3.33-2.557,5.485c0,1.37,0.335,2.419,1.006,3.147
c0.67,0.729,1.551,1.384,2.644,1.967c1.092,0.583,2.003,1.13,2.732,1.64c0.729,0.509,1.093,1.23,1.093,2.164
c0,0.874-0.379,1.741-1.136,2.6c-0.758,0.86-1.895,1.289-3.41,1.289c-1.864,0-2.929-0.466-3.19-1.398
c-0.263-0.933-0.408-1.617-0.437-2.054h-0.438l-1.661,3.934c0.408,0.32,0.962,0.634,1.661,0.939
c0.699,0.306,1.807,0.458,3.322,0.458c2.71,0,4.954-0.787,6.731-2.36c1.777-1.573,2.666-3.482,2.666-5.726
c0-1.165-0.262-2.12-0.787-2.863c-0.523-0.742-1.252-1.392-2.185-1.945c-0.933-0.553-1.981-1.15-3.147-1.792
c-0.962-0.699-1.441-1.529-1.441-2.491c0-0.991,0.399-1.814,1.201-2.47c0.801-0.655,1.741-0.983,2.819-0.983
c0.903,0,1.654,0.284,2.251,0.852c0.598,0.568,0.896,1.188,0.896,1.858h0.437l1.574-2.929
C118.096,12.543,117.579,12.215,116.632,11.821z M205.101,13.613c-1.734-1.588-4.101-2.382-7.103-2.382
c-3.759,0-7.11,1.297-10.053,3.891s-4.415,5.872-4.415,9.835c0,2.535,0.845,4.632,2.535,6.293s3.992,2.491,6.906,2.491
c4.05,0,7.518-1.34,10.402-4.021s4.328-5.974,4.328-9.879C207.702,17.278,206.835,15.202,205.101,13.613z M251.105,11.887
l-2.972,14.425l-10.621-14.425h-2.798l-4.283,21.462h2.491l3.06-15.298l10.928,15.254h2.36l4.196-21.418l-1.224,0.131
L251.105,11.887z M120.369,13.242c-0.088,0.524-0.204,0.918-0.35,1.18l2.623-0.218l3.147-0.131l-3.716,19.319h4.546l3.759-19.319
l2.754,0.131c0.494,0,0.888,0.022,1.18,0.065c0.291,0.044,0.831,0.124,1.617,0.241c-0.029-0.438,0.007-0.918,0.109-1.442
c0.102-0.524,0.226-0.918,0.372-1.181H120.5C120.5,12.265,120.456,12.718,120.369,13.242z M102.011,12.105
c-0.379,0-0.772-0.043-1.18-0.131l-2.973,14.512l-10.709-14.6h-2.667l-4.327,21.462h2.492l2.928-15.298l10.928,15.298h2.448
l4.24-21.375C102.841,12.062,102.447,12.105,102.011,12.105z M79.237,16.804c0.029-0.247,0.044-0.473,0.044-0.677
c0-0.524-0.073-0.983-0.219-1.376c-0.146-0.394-0.372-0.808-0.677-1.246c-0.307-0.437-0.845-0.794-1.618-1.071
c-0.771-0.277-1.668-0.416-2.688-0.416h-8.261l-4.239,21.331h4.72l1.924-9.747h0.393l3.803,9.747h5.42l-4.633-10.447
c0.523-0.146,1.084-0.334,1.682-0.567s1.21-0.583,1.836-1.049c0.626-0.466,1.158-1.019,1.595-1.661
c0.438-0.641,0.729-1.384,0.875-2.229C79.194,17.249,79.208,17.053,79.237,16.804z M269.027,11.581c-4.051,0-7.555,1.333-10.512,4
c-2.959,2.666-4.437,5.98-4.437,9.944c0,2.885,1.107,5.027,3.322,6.424c2.214,1.398,4.589,2.098,7.125,2.098
c1.34,0,2.702-0.139,4.086-0.415c1.384-0.277,2.878-0.663,4.48-1.158l1.661-8.437c-0.524,0.088-1.122,0.131-1.792,0.131
c-1.195,0-2.113-0.073-2.753-0.219l-1.355,7.125c-0.467,0.35-1.006,0.605-1.618,0.765c-0.612,0.16-1.515,0.24-2.71,0.24
c-1.69,0-3.001-0.539-3.935-1.617c-0.932-1.078-1.398-2.565-1.398-4.459c0-0.99,0.232-2.477,0.699-4.458s1.494-3.832,3.082-5.551
c1.588-1.719,3.591-2.579,6.01-2.579c1.078,0,2.199,0.298,3.365,0.896c1.166,0.597,1.909,1.361,2.23,2.294h0.437l1.398-3.016
C274.636,12.251,272.174,11.581,269.027,11.581z M229.688,12.018c-0.583,0-0.991-0.043-1.224-0.131l-2.798,13.943
c-0.291,1.458-1.026,2.813-2.207,4.065c-1.181,1.253-2.761,1.879-4.743,1.879c-1.516,0-2.681-0.422-3.497-1.267
c-0.816-0.846-1.224-1.924-1.224-3.235c0-0.408,0.043-0.816,0.131-1.224l2.71-14.118c-0.438,0.146-1.151,0.219-2.142,0.219
c-1.137,0-1.968-0.073-2.491-0.219l-2.623,14.118c-0.116,0.554-0.175,1.107-0.175,1.661c0,2.215,0.831,3.774,2.491,4.677
c1.661,0.904,3.57,1.355,5.727,1.355c2.71,0,4.99-0.699,6.841-2.098c1.85-1.398,3.023-3.336,3.519-5.813l2.841-13.943
C230.504,11.975,230.125,12.018,229.688,12.018z M73.992,19.165c-0.117,0.364-0.321,0.75-0.612,1.159
c-0.292,0.408-0.612,0.75-0.961,1.027c-0.35,0.276-0.721,0.48-1.115,0.611c-0.393,0.131-0.721,0.204-0.984,0.219
c-0.262,0.015-0.524,0.022-0.786,0.022h-0.962l1.618-8.349h1.966c0.524,0,0.998,0.146,1.421,0.438
c0.423,0.292,0.685,0.583,0.787,0.875c0.101,0.292,0.153,0.685,0.153,1.18c0,0.438-0.059,0.918-0.175,1.443
C74.226,18.341,74.109,18.8,73.992,19.165z M198.981,29.284c-1.501,1.69-3.49,2.535-5.966,2.535c-1.633,0-2.82-0.532-3.563-1.595
c-0.743-1.063-1.114-2.44-1.114-4.131c0-0.67,0.072-1.391,0.218-2.164s0.481-1.989,1.005-3.649c0.524-1.661,1.464-3.271,2.819-4.831
c1.355-1.559,3.126-2.339,5.311-2.339c1.573,0,2.819,0.576,3.737,1.727c0.918,1.151,1.378,2.659,1.378,4.524
c0,1.049-0.146,2.113-0.438,3.191C201.611,25.35,200.482,27.594,198.981,29.284z M151.075,30.268
c-0.277,0.16-0.685,0.321-1.224,0.48c-0.539,0.16-0.962,0.263-1.269,0.306c-0.306,0.044-0.575,0.065-0.808,0.065
c-0.7,0-1.516-0.226-2.448-0.677c-0.932-0.451-1.398-1.436-1.398-2.951c-0.088-0.962,0.167-1.822,0.765-2.579
c0.598-0.758,1.114-1.297,1.552-1.618c0.437-0.32,0.786-0.524,1.049-0.611l4.372,7.168
C151.549,29.969,151.352,30.107,151.075,30.268z"/>
<polygon points="7.815,4.543 21.322,4.543 20.273,9.789 6.766,9.789 "/>
<polygon points="6.358,12.438 19.865,12.438 18.815,17.684 5.309,17.684 "/>
<polygon points="4.9,20.212 18.407,20.212 17.358,25.458 3.851,25.458 "/>
<polygon points="23.944,4.543 29.102,4.543 24.994,25.525 19.835,25.525 "/>
<polygon points="31.718,4.543 36.876,4.543 31.2,33.392 2.133,33.392 3.182,28.235 27.179,28.235 "/>
</svg>
