<svg xmlns="http://www.w3.org/2000/svg" fill="none" viewBox="0 0 115 38"><path fill="#fff" fill-rule="evenodd" d="M106.537 22.606c2.725.19 5.756.754 7.315 2.248.694.667 1.041 1.495 1.148 2.456 0 3.95-6.167 6.193-15.43 8.356-4.618 1.067-9.984 1.628-14.976 1.628-3.871 0-7.555-.32-10.519-1.014-7.18-1.656-9.316-3.951-11.986-7.555-1.869-2.51-2.27-5.233-2.51-7.048l-.008-.062c-.103-.718-.183-1.279-.338-1.486-.011 0-.023-.005-.035-.01a.175.175 0 0 0-.072-.017c-.187 0-.854.16-2.403 2.27a26.424 26.424 0 0 0-2.242 3.576l-.131.24c-.06.111-.103.191-.136.24a.47.47 0 0 1-.347.241c-.454.08-1.095-.24-1.282-.374-.273-.174-.269-.812-.267-1.07v-.05c0-.177.02-.373.04-.588.015-.143.03-.294.04-.454l.027-.285c.05-.537.111-1.182.134-1.904.053-2.242-.08-2.937-.16-3.15-.401.48-1.736 2.643-2.937 4.858-1.388 2.59-1.682 2.884-2.002 2.91-.347 0-.748-.16-1.095-.454-.32-.267-.187-2.589-.133-3.176.03-.231.07-.497.114-.788l.1-.68c.133-.828.266-1.656.266-2.11 0-.347-.107-.507-.187-.56-.026-.027-.053-.027-.08 0-.907.774-1.949 2.482-2.696 3.764-.1.184-.206.391-.32.613-.101.195-.208.402-.32.615-.935 1.762-1.522 2.856-2.03 2.936a.395.395 0 0 1-.347-.106c-.507-.508-2.002-3.845-1.281-6.327.347-1.175.587-1.762 1.388-2.563-.347-.133-.934-.454-1.521-1.041-.267.294-.881.774-1.87.854-.026.08-.026.214-.026.347 0 .16 0 .347-.027.534a8.778 8.778 0 0 1-.587 2.403c-1.415 3.71-3.524 6.113-4.458 5.793-.694-.24-2.109-1.282-2.643-3.55-.587 1.12-1.789 3.363-2.643 3.63h-.053c-.668.053-1.201-.828-1.789-2.937-.267-.907-.4-1.521-.48-1.895-.614 1.228-2.083 4.004-3.23 4.698-.214.107-.561.08-.908-.08-.454-.213-1.575-.988-2.11-3.524-.773.561-2.295 1.762-3.924 3.444-.56.507-1.655.4-2.188-.053-.4-.347-.107-.961.24-1.682a6.8 6.8 0 0 0 .427-1.015c0-.053.027-.133.053-.213 1.282-3.898.854-5.152.267-5.526l-.08-.053c-.56-.374-1.014-.641-4.191.747 1.255 1.949 1.655 3.017 1.655 4.485 0 2.269-2.296 3.71-5.846 3.71-3.177 0-4.245-1.067-4.565-1.628l-.054-.08c-.32-.48-.373-1.068-.16-1.548.08-.16.374-.748.828-1.255.79-.87 2.153-1.687 3.728-2.632l.063-.038c.427-.24.8-.453 1.174-.667-.35-.514-.742-1.028-1.174-1.596l-.187-.246C1.116 12.574.02 10.625.02 9.023c0-1.602 1.389-3.47 4.298-5.82C7.817.427 9.472 0 10.14 0c1.575 0 2.376 1.255 2.403 3.764 0 3.177-2.056 5.98-2.536 6.14-.107.027-.24.027-.4-.133-.428-.427-1.015-2.03-.802-2.59.06-.2.165-.4.27-.6.036-.067.07-.134.104-.2l.021-.041c.342-.657.726-1.396.726-2.442 0-1.549-1.094-1.682-1.094-1.682-1.014 0-2.51.934-3.577 1.708-2.536 1.842-3.097 3.31-3.097 3.711v.091c0 .507 0 1.279 3.63 6.102 1.255 1.682 2.03 2.75 2.617 3.631 2.643-1.388 4.458-2.029 5.713-2.029.534 0 .934.16 1.308.56.32.348.8 1.255.747 3.605-.08 2.082-.427 3.443-.454 3.497 0 0-.026.133-.053.294.587-.428 1.602-1.095 2.616-1.576-.293-2.429.294-3.443.774-4.27l.08-.161c.588-.988 1.656-1.842 2.723-2.136.748-.213 1.843.187 2.483.614-.027-1.468.054-4.164 1.388-8.329C27.198 2.99 29.76.481 30.428.641c.534.133 1.708 1.148 1.815 1.682.107.507-.774 4.511-2.296 8.329-1.415 3.55-3.257 7.1-3.497 7.554l.005.098c.038.745.204 4.063 1.116 5.482.16-.08.801-.454 1.842-2.59v-.213c0-3.738 2.75-5.766 3.871-5.766.614 0 1.522.827 1.869 1.281.214.24.267.427.24.587a.532.532 0 0 1-.347.267c-.187.08-.587.134-.827-.053s-.534-.32-.641-.32l-.027.026c-1.068.961-1.655 2.323-1.655 3.818 0 2.242 1.068 3.55 1.362 3.764.186-.16.96-1.148 2.055-4.031.72-1.95.64-3.044.56-3.417v-.027a.515.515 0 0 1 .108-.48c.16-.16.4-.24.774-.24.587 0 1.441-.214 1.868-.561-.774-1.148-1.174-2.59-1.174-4.325 0-3.684 1.815-5.286 2.402-5.286.561 0 2.43 1.308 3.017 2.323.347.667.427 1.334.427 1.495 0 .4-.08 1.521-.96 2.99a15.29 15.29 0 0 1-1.95 2.616c.294.213 1.015.667 2.723 1.361.267.134.4.294.454.507.053.24-.08.561-.374.935-.056.07-.12.14-.186.214-.06.067-.124.137-.187.213-.614.667-1.362 1.522-1.442 2.883-.053 1.148.134 1.842.24 2.109.347-.48.588-.961.908-1.628l.067-.135c.42-.84.979-1.96 2.042-3.656 1.255-1.976 2.27-3.177 3.284-2.67.747.32 1.174.588 1.148 2.51 0 .864-.206 2.207-.385 3.376l-.043.28c-.053.401-.106.802-.16 1.122.539-.808 1.531-2.56 2.294-3.908l.402-.71.445-.786c.324-.573.547-.97.623-1.083.4-.56 1.175-.614 1.869-.614a.48.48 0 0 1 .4.187c.16.16.614.64.4 3.898a34.493 34.493 0 0 1-.32 2.349l-.053.385c-.035.261-.071.522-.107.736.082-.136.184-.293.294-.46.105-.161.216-.331.32-.501l.368-.567c.424-.656.896-1.386 1.367-2.023 1.255-1.708 2.19-2.429 4.112-2.002.587.134.667 1.442.774 3.55.027.748.053 1.442.133 1.896.294 1.976 1.575 4.966 3.764 7.208 2.19 2.242 4.192 3.47 10.278 4.805 5.446 1.202 14.016.935 21.864-.694 6.727-1.388 15.644-3.657 15.644-7.208 0-.747-.347-1.415-1.041-1.975-1.158-.955-3.176-1.57-5.767-1.834v.179c0 1.681-.934 2.51-2.883 2.51h-7.501c-.374 0-.534-.268-.534-.535v-1.635a54.86 54.86 0 0 0-.509.084c.316.904.304 1.04.268 1.31-.026.054-.026.108-.026.161-.027.72-1.068.881-1.335.881H90.76c-1.689 0-2.976-.003-3.958-.01-4.595 1.623-7.053 3.014-8.295 3.72-.774.455-1.014.588-1.201.401l-.187-.187.213-.133a57.734 57.734 0 0 1 7.216-3.844c-.904-.04-.929-.106-.969-.212v-.002l-.054-.133.187-.134h.054a74.985 74.985 0 0 0 2.337-.178 48.759 48.759 0 0 1 5.86-1.959 739.982 739.982 0 0 1-2.404-6.459 4.644 4.644 0 0 1-2.35.64c-1.014 0-2.269-.907-2.642-1.2-.214-.16-.988-.4-1.736-.054-1.548 5.019-2.75 8.863-2.856 9.077-.16.373-.454.64-.72.64h-8.33l-.06.001c-.151.003-.333.007-.474-.134a.579.579 0 0 1-.133-.374V.855c0-.321 0-.855.534-.855h2.616c.213 0 .614 0 .614.534v24.213c0 .32.053.374.24.374H78.4c.72 0 .747-.027.88-.347.134-.32 4.112-13.108 4.299-13.802.16-.587.294-1.388.294-1.709V3.043c0-.016-.01-.022-.025-.031-.008-.006-.019-.012-.029-.022l-.053-.053c-.4-.374-.935-.881-1.095-1.095-.213-.294-.32-.614-.294-.961C82.404.454 83.126 0 83.5 0h6.38c.294 0 .908 0 1.148.427.294.587.027 1.175-.107 1.442l-.027.053c-.053.134-.267.427-.587.828a1.787 1.787 0 0 1-.157.213c-.033.04-.062.076-.083.107-.24.294-.32.534-.32.747v6.22c0 .348.08.801.16 1.042.026.053.373.907.8 1.975l.294.734c1.078 2.693 2.635 6.584 3.39 8.583.142.374.265.7.37.983.293-.057.58-.11.859-.159V1.068.995c-.003-.26-.006-.59.213-.808.134-.134.294-.187.507-.187h7.101c2.003 0 3.097.934 3.097 2.59v6.513c0 .694-.507 1.682-1.335 2.136.855.374 1.335 1.281 1.335 2.616v8.751zm-3.657-.07v-10.23a.62.62 0 0 0-.614-.613v.026h-3.577c-.054.027-.134.24-.134.428v10.641c1.374-.14 2.45-.178 3.177-.203.187-.027.347-.027.481-.027.202-.008.425-.016.667-.022zm-4.325 1.303V25.147H101.92c.4 0 .694-.08.827-.213.134-.16.134-.374.134-.588v-.777c-1.36.018-2.811.108-4.325.27zM39.531 12.574c0 .667.24 1.495.374 1.949 1.361-1.549 2.002-2.777 2.029-3.791 0-.988-.267-1.388-.48-1.709-.188-.267-.348-.4-.455-.4h-.026c-1.148.987-1.442 3.016-1.442 3.95zm-9.664-4.405c.614-1.682.988-4.191 1.095-5.019-.347.187-1.228.934-2.456 3.71-1.522 3.498-1.95 6.995-2.056 8.89 1.575-2.67 2.803-5.846 3.417-7.581zm-8.169 15.644c.4-.427 2.563-3.818 2.723-4.165.054-.32.027-.454-.026-.72v-.054l-.015-.058c-.077-.32-.188-.776-.866-1.304-.748-.587-1.228-.72-1.575-.48-.855.587-1.255 1.842-1.202 3.71.027 1.522.694 2.91.961 3.07zM4.827 25.708c2.99 0 3.657-1.495 3.657-2.082 0-.64-.32-1.522-1.949-3.818-.194.106-.388.2-.59.298l-.318.156-.213.107c-1.575.8-2.723 1.388-3.417 2.109-.134.16-.294.72-.187 1.308.374 1.014.88 1.922 3.017 1.922zM84.753 9.29c0 .961-.026 1.682-.186 2.082-.025.062-.182.562-.416 1.303v.003c-.27.856-.64 2.033-1.026 3.233.294-.08.587-.107.934-.107.565 0 1.061.225 1.553.448v.001l.13.058c.533.267 1.014.48 1.44.4.561-.133 1.309-.4 1.816-.694l-.538-1.465c-.605-1.645-1.156-3.142-1.197-3.286-.16-.428-.187-.775-.187-1.175V3.497c0-.374.027-.667.294-.934.08-.08.24-.267.4-.454.075-.083.147-.166.215-.244.15-.174.28-.323.372-.397a.231.231 0 0 0 .107-.187h-4.538c.027.134.187.374.347.588.04.053.073.1.107.147.033.046.066.093.107.146.266.4.266.721.266.988v6.14zm18.127 1.362s-.054.053-.427.053h-3.925V1.388c0-.027.027-.08.054-.107h3.55c.641 0 .775.187.775.588v8.703c-.027 0-.027.053-.027.08zm-17.059 9.583c0 .668-.534 1.228-1.228 1.228-.667 0-1.228-.56-1.228-1.228 0-.667.534-1.228 1.228-1.228.668 0 1.228.534 1.228 1.228zm-1.308.24c.214.08.374-.106.427-.186-.08-.107-.454-.24-.587-.24a.242.242 0 0 0-.08.186c.026.107.107.187.24.24zm5.1 1.175a1.846 1.846 0 0 0-1.842-1.842 1.846 1.846 0 0 0-1.842 1.842c0 1.015.828 1.842 1.842 1.842 1.015 0 1.842-.8 1.842-1.842zm-1.255.56c-.106.134-.32.188-.48.188h-.053c-.214 0-.534-.107-.668-.32-.107-.16-.133-.348-.053-.588.026-.08.293-.187.667-.16.294.027.614.16.668.374.053.24.026.4-.08.507zm-3.926 1.282a.957.957 0 0 0-.96-.96.957.957 0 0 0-.962.96c0 .534.427.961.961.961.534.027.961-.427.961-.96zm-.72.054a.554.554 0 0 1-.054.16c0 .027-.053.08-.08.053a.883.883 0 0 0-.038-.011l-.022-.006c-.11-.03-.297-.082-.34-.17v-.08c.106-.026.427 0 .534.054zm-18.633 2.67a.38.38 0 0 0 .16.053c.064 0 .11-.017.167-.037l.047-.017c.507-.213 1.335-1.201 1.522-1.815.187-.694-.054-1.308-.214-1.628l-.027-.054c-.08-.24-.347-.374-.667-.374a.914.914 0 0 0-.72.32l-.042.056v.002c-.201.272-.811 1.098-.786 1.811l.001.017c.08.716.162 1.453.56 1.665zM17.16 14.068h-.107c-.373 0-1.281-.16-1.335-.614-.133-.641 1.148-5.34 1.656-6.034.053-.106.187-.16.4-.16.56 0 1.628.374 2.082.721.48.374.08 1.068-.454 1.922-.24.374-.507.801-.72 1.255-.267.507-.48 1.014-.668 1.468-.453 1.068-.614 1.415-.854 1.442zm32.409 0h.107c.24-.027.4-.374.854-1.442.187-.454.4-.934.667-1.468.214-.454.48-.881.721-1.255.534-.854.935-1.548.454-1.922-.454-.347-1.548-.72-2.082-.72-.214 0-.347.053-.4.16-.508.694-1.79 5.392-1.656 6.033.054.454.961.614 1.335.614z" clip-rule="evenodd"/></svg>