<?xml version="1.0" standalone="no"?>
<!DOCTYPE svg PUBLIC "-//W3C//DTD SVG 20010904//EN"
 "http://www.w3.org/TR/2001/REC-SVG-20010904/DTD/svg10.dtd">
<svg version="1.0" xmlns="http://www.w3.org/2000/svg"
 width="1000.000000pt" height="1000.000000pt" viewBox="0 0 1000.000000 1000.000000"
 preserveAspectRatio="xMidYMid meet">

<g transform="translate(0.000000,1000.000000) scale(0.100000,-0.100000)"
fill="#000000" stroke="none">
<path d="M2890 6920 l0 -2160 2190 0 2190 0 0 2160 0 2160 -2190 0 -2190 0 0
-2160z m894 1655 c20 -9 52 -32 71 -52 69 -73 65 4 65 -1345 0 -1097 2 -1222
16 -1258 21 -51 54 -74 128 -88 82 -17 2292 -17 2302 -1 3 6 -4 34 -16 63 -29
66 -22 48 -203 491 -181 442 -211 516 -266 648 -82 200 -85 211 -85 342 -1
139 -9 117 166 420 59 101 99 170 145 250 22 39 72 124 110 190 39 66 83 142
98 170 40 69 108 140 160 164 61 29 160 29 212 0 57 -31 103 -83 124 -142 28
-75 26 -97 -15 -187 -6 -14 -13 -27 -16 -30 -6 -6 -50 -86 -65 -117 -5 -13
-13 -23 -17 -23 -5 0 -8 -5 -8 -10 0 -6 -18 -40 -40 -76 -22 -36 -40 -68 -40
-70 0 -2 -19 -37 -43 -77 -24 -39 -63 -106 -87 -147 -24 -41 -53 -91 -65 -111
-13 -19 -38 -64 -56 -100 -29 -56 -33 -73 -33 -139 1 -72 4 -84 108 -330 59
-140 134 -322 167 -405 34 -82 67 -165 75 -182 8 -18 20 -48 28 -65 8 -18 31
-76 52 -128 20 -52 41 -99 45 -104 5 -6 9 -16 9 -23 0 -7 9 -35 21 -61 12 -26
24 -56 29 -67 18 -48 57 -139 76 -179 8 -16 14 -33 14 -38 0 -5 9 -28 20 -50
11 -23 20 -45 20 -50 0 -5 9 -30 21 -56 12 -26 24 -56 29 -67 12 -32 26 -66
50 -119 11 -26 20 -55 18 -65 -3 -15 -128 -16 -1633 -16 -1680 0 -1649 -1
-1742 36 -151 59 -238 143 -287 276 -21 58 -21 61 -24 1396 -2 910 1 1351 8
1377 14 52 66 117 115 146 32 18 56 23 121 23 52 1 95 -5 118 -14z m838 1 c47
-20 89 -62 116 -116 l22 -45 3 -885 c2 -487 7 -900 11 -917 30 -122 216 -162
296 -65 l30 37 0 884 c0 641 3 894 12 920 31 99 65 144 135 180 51 25 162 29
215 7 38 -16 98 -68 98 -85 0 -6 5 -11 10 -11 6 0 10 -8 10 -18 0 -10 6 -24
13 -31 9 -9 12 -215 12 -961 0 -746 -3 -952 -12 -962 -7 -6 -13 -20 -13 -30 0
-16 -9 -39 -53 -138 -66 -147 -234 -278 -417 -326 -79 -20 -252 -23 -329 -4
-136 32 -222 80 -311 170 -72 72 -79 82 -119 165 -50 103 -59 132 -80 251 -15
81 -15 1686 -1 1770 27 151 106 223 246 224 41 0 87 -6 106 -14z"/>
<path d="M7173 4403 c-13 -2 -23 -8 -23 -12 0 -4 -22 -14 -50 -21 -27 -7 -50
-17 -50 -21 0 -4 -12 -9 -27 -11 -54 -6 -38 -69 36 -146 154 -159 487 -158
643 3 58 59 80 102 67 127 -5 10 -18 18 -29 18 -10 0 -21 4 -24 8 -3 4 -28 14
-55 22 -28 7 -51 17 -51 21 0 9 -50 18 -67 12 -7 -3 -13 -12 -13 -21 0 -9 -16
-31 -36 -49 -35 -31 -40 -33 -113 -33 -71 0 -79 2 -114 31 -20 17 -37 39 -37
49 0 14 -25 35 -33 29 -1 -1 -12 -4 -24 -6z"/>
<path d="M5791 4373 c-8 -16 -17 -36 -22 -45 -5 -10 -9 -25 -9 -33 0 -8 -4
-15 -9 -15 -5 0 -11 -8 -14 -17 -6 -19 -38 -74 -47 -83 -3 -3 -17 -21 -30 -40
-37 -53 -64 -84 -195 -219 -255 -263 -285 -296 -285 -307 0 -3 -6 -11 -12 -19
-28 -28 -50 -58 -69 -91 -10 -19 -28 -50 -39 -69 -11 -20 -20 -42 -20 -50 0
-8 -4 -15 -10 -15 -5 0 -10 -11 -10 -24 0 -14 -4 -28 -10 -31 -13 -8 -13 -218
0 -262 6 -18 15 -50 21 -70 15 -54 71 -173 81 -173 4 0 8 -7 8 -16 0 -9 8 -24
18 -33 10 -9 29 -32 42 -51 26 -38 47 -59 100 -99 19 -14 37 -29 40 -32 12
-14 122 -68 176 -86 135 -46 146 -48 314 -48 168 0 223 9 335 55 11 5 35 14
53 22 17 7 32 16 32 20 0 5 5 8 11 8 18 0 101 62 154 115 52 52 115 136 115
153 0 6 3 12 8 14 10 4 48 83 68 143 44 129 50 278 15 370 -16 42 -76 160 -83
163 -5 2 -8 10 -8 18 0 8 -4 14 -8 14 -4 0 -16 13 -25 30 -10 16 -23 35 -30
42 -7 8 -37 43 -67 78 -30 36 -68 79 -85 96 -303 312 -374 399 -446 547 -18
37 -36 67 -39 67 -4 0 -12 -12 -19 -27z m-358 -756 c-5 -7 -15 -32 -22 -57 -7
-25 -17 -54 -22 -65 -12 -29 -19 -102 -25 -262 -3 -80 -10 -143 -15 -143 -10
0 -41 30 -69 66 -44 56 -52 164 -19 264 23 71 61 131 129 204 40 44 45 46 48
27 2 -12 0 -27 -5 -34z"/>
<path d="M1274 3997 c-12 -7 -14 -83 -14 -493 0 -534 2 -520 -62 -567 -42 -31
-112 -50 -169 -45 l-44 3 -3 -172 c-2 -170 -2 -172 20 -184 33 -19 312 -18
358 0 79 31 90 36 90 43 0 5 6 8 13 8 31 0 122 108 156 185 7 17 17 38 22 47
5 10 9 33 9 52 0 19 5 38 10 41 6 4 10 138 10 371 l0 364 140 0 140 0 0 -550
0 -550 200 0 200 0 0 720 c0 580 -3 722 -13 726 -22 8 -1048 9 -1063 1z"/>
<path d="M2437 3998 c-7 -4 38 -105 122 -275 252 -508 291 -588 291 -600 0 -7
5 -13 10 -13 6 0 10 -9 10 -20 0 -11 5 -20 10 -20 6 0 10 -9 10 -20 0 -11 5
-20 10 -20 6 0 10 -9 10 -20 0 -11 5 -20 10 -20 27 0 2 -72 -80 -235 -49 -98
-90 -185 -90 -192 0 -10 44 -13 209 -13 l208 0 26 58 c14 31 55 127 92 212 37
85 92 211 122 280 31 69 76 172 100 230 25 58 53 123 63 145 10 22 28 63 40
90 12 28 33 74 46 103 13 29 24 55 24 57 0 2 12 30 26 62 14 32 32 73 40 91 8
17 21 47 29 66 17 40 19 56 5 56 -5 1 -98 1 -205 1 -107 0 -202 0 -210 -1 -8
0 -15 -7 -15 -15 0 -8 -5 -25 -12 -38 -24 -48 -28 -57 -28 -76 0 -11 -4 -22
-8 -25 -4 -3 -14 -28 -22 -56 -8 -28 -18 -53 -22 -56 -4 -3 -8 -14 -8 -25 0
-10 -4 -28 -10 -39 -5 -11 -14 -29 -20 -40 -5 -11 -10 -29 -10 -39 0 -11 -4
-23 -10 -26 -5 -3 -10 -15 -10 -26 0 -10 -4 -27 -9 -37 -5 -9 -16 -33 -24 -52
l-16 -35 -10 28 c-6 16 -22 53 -36 83 -14 30 -25 56 -25 59 0 3 -109 264 -129
310 -5 11 -17 39 -27 63 -10 23 -23 42 -28 42 -147 5 -441 3 -449 -2z"/>
<path d="M3884 3997 c-12 -7 -14 -114 -14 -727 l0 -720 205 0 205 0 2 291 3
292 67 -104 c37 -57 71 -109 76 -115 5 -5 15 -21 22 -34 7 -13 17 -29 21 -34
5 -6 51 -75 101 -153 l93 -143 248 0 c136 0 247 3 247 6 0 6 -40 66 -50 74 -3
3 -17 21 -30 40 -13 19 -30 41 -37 48 -7 7 -13 17 -13 22 0 5 -6 15 -13 22 -7
7 -24 29 -37 48 -13 19 -27 37 -30 40 -3 3 -17 21 -30 40 -14 19 -32 44 -42
54 -10 11 -18 26 -18 33 0 7 -4 13 -8 13 -4 0 -16 13 -25 30 -10 16 -23 35
-30 42 -7 7 -24 29 -37 48 -13 19 -27 37 -30 40 -4 3 -22 28 -40 55 -19 28
-37 52 -42 53 -4 2 -8 10 -8 17 0 7 -5 15 -12 17 -8 3 -5 12 10 28 12 13 22
29 22 35 0 6 9 17 20 25 11 8 20 20 20 27 0 7 5 13 10 13 6 0 10 7 10 15 0 8
4 15 8 15 4 0 16 13 25 30 10 16 23 35 30 42 7 7 24 29 37 48 13 19 27 37 30
40 3 3 17 21 30 40 13 19 27 37 30 40 3 3 17 21 30 40 13 19 27 37 30 40 4 3
21 28 40 55 19 28 36 52 40 55 3 3 17 21 30 40 13 19 30 41 37 48 32 33 7 37
-223 35 -215 -3 -227 -4 -243 -23 -9 -12 -95 -141 -191 -288 l-175 -267 -3
288 c-2 219 -5 287 -15 287 -158 5 -372 3 -383 -3z"/>
<path d="M6734 3997 c-12 -7 -14 -114 -14 -727 l0 -720 205 0 c162 0 205 3
205 13 0 7 9 23 20 35 11 12 20 26 20 32 0 6 9 20 20 32 11 12 20 28 20 35 0
7 4 13 9 13 5 0 11 8 14 18 6 17 37 72 47 82 10 10 41 65 47 83 3 9 9 17 13
17 4 0 13 14 20 30 7 17 16 30 20 30 4 0 10 8 13 18 6 17 37 72 47 82 3 3 11
15 18 28 6 12 18 32 25 45 6 12 14 24 17 27 3 3 26 39 50 80 25 41 48 77 52
78 5 2 8 9 8 17 0 7 7 18 15 25 13 11 15 -36 17 -401 l3 -414 193 -3 192 -2 0
725 c0 573 -3 725 -12 726 -61 3 -391 -2 -398 -6 -6 -4 -10 -12 -10 -20 0 -7
-3 -15 -7 -17 -10 -4 -42 -57 -50 -80 -3 -10 -9 -18 -14 -18 -5 0 -9 -5 -9
-11 0 -6 -13 -30 -30 -54 -16 -24 -30 -46 -30 -50 0 -3 -18 -33 -40 -65 -22
-32 -40 -62 -40 -65 0 -4 -13 -26 -30 -50 -16 -24 -30 -47 -30 -50 0 -4 -8
-19 -19 -33 -10 -15 -29 -45 -42 -68 -13 -22 -53 -89 -89 -149 l-65 -109 -3
422 c-2 327 -5 422 -15 422 -150 5 -352 3 -363 -3z"/>
<path d="M8425 3988 c-2 -7 -6 -229 -7 -493 l-3 -480 -25 -35 c-45 -65 -99
-90 -197 -90 l-63 0 0 -169 c0 -123 3 -171 13 -178 15 -13 123 -26 207 -26 78
1 220 28 220 42 0 3 15 13 33 20 37 17 137 117 137 137 0 8 4 14 9 14 5 0 11
8 15 18 56 156 56 157 56 542 l0 360 140 0 140 0 0 -549 c0 -491 2 -549 16
-555 20 -8 332 -8 362 0 l22 6 -2 722 -3 721 -533 3 c-421 2 -533 0 -537 -10z"/>
<path d="M942 2188 l3 -203 4175 0 c4167 0 4175 0 4178 20 2 11 8 31 15 45 12
28 77 100 89 100 4 0 8 -37 10 -82 l3 -83 50 0 50 0 3 203 2 202 -4290 0
-4290 0 2 -202z m8468 72 c0 -28 -2 -30 -41 -30 -42 0 -69 17 -69 44 0 13 12
16 55 16 54 0 55 0 55 -30z"/>
</g>
</svg>
