<?xml version="1.0" encoding="utf-8"?>
<!-- Generator: Adobe Illustrator 14.0.0, SVG Export Plug-In . SVG Version: 6.00 Build 43363)  -->
<!DOCTYPE svg PUBLIC "-//W3C//DTD SVG 1.1//EN" "http://www.w3.org/Graphics/SVG/1.1/DTD/svg11.dtd">
<svg version="1.1"
	 id="P_x26_G" xmlns:cc="http://creativecommons.org/ns#" xmlns:rdf="http://www.w3.org/1999/02/22-rdf-syntax-ns#" xmlns:dc="http://purl.org/dc/elements/1.1/" xmlns:svg="http://www.w3.org/2000/svg"
	 xmlns="http://www.w3.org/2000/svg" xmlns:xlink="http://www.w3.org/1999/xlink" x="0px" y="0px" width="400px" height="300px"
	 viewBox="0 0 400 300" enable-background="new 0 0 400 300" xml:space="preserve">
<path id="P" fill="#003CAE" d="M126.065,94.61c6.598,0,24.863,0.88,13.031,35.361c-12.273,36.175-39.629,28.757-39.629,28.757
	l20.124-64.119H126.065z M175.017,132.258c15.385-37.939-13.516-48.321-32.26-48.321H80.674c5.146,3.58,4.289,8.325,3.327,11.146
	L47.782,210.864c-1.429,4.653-6.917,9.354-9.782,10.2h50.308c-2.845-0.556-6.753-4.502-5.279-9.826l13.136-41.887
	C96.163,169.352,156.658,177.527,175.017,132.258"/>
<path id="_x26_" fill="#003CAE" d="M195.315,203.261c-1.985,1.226-9.842,5.218-17.194,5.89c-6.899,0.604-18.231-1.996-18.231-15.644
	c0-11.794,12.794-20.207,19.567-23.254C182.525,181.568,188.64,194.445,195.315,203.261 M215.131,129.526
	c-1.676,11.074-15.899,22.219-19.402,23.643c-0.639-6.19-0.412-16.012,4.733-23.968c3.558-5.284,8.062-7.582,11.7-6.301
	C215.131,123.917,215.489,126.584,215.131,129.526 M215.131,221.064h33.955c-10.839-3.559-26.872-13.795-33.294-21.054
	c5.217-5.565,11.541-12.663,12.729-27.069h-17.579c0,0,3.492,1.858,3.492,6.011c0,3.854-1.558,9.089-4.525,12.815
	c-5.108-7.619-10.678-16.324-12.63-29.113c6.884-3.42,16.633-7.115,24.243-13.797c7.368-6.465,9.018-12.387,9.117-16.375v-0.517
	c0-4.124-1.528-7.896-4.598-10.881c-5.032-5.048-13.086-7.033-21.487-5.57c-6.853,1.319-12.531,4.894-15.319,7.538
	c-10.403,9.557-11.695,25.453-11.695,32.596c0,1.595,0.121,3.035,0.154,3.795c-0.49,0.154-1.671,0.654-1.671,0.654
	c-7.353,2.704-27.279,8.032-34.421,24.418c-0.896,2.019-2.199,6.582-2.199,11.854c0,4.433,0.891,9.44,3.783,14.092
	c5.107,7.825,13.548,12.69,27.222,12.488c14.819-0.188,29.467-10.349,31.991-12.196C205.01,213.195,211.751,219.404,215.131,221.064
	"/>
<path id="G" fill="#003CAE" d="M318.029,94.715c20.163-4.812,36.772,10.98,38.324,11.954L362,88.474
	c-7.912-2.402-65.606-21.978-106.4,24.617c-25.063,28.669-31.354,87.322,0.555,103.031c34.069,16.87,71.739-2.563,74.385-3.883
	l15.654-49.438c1.654-6.087,5.398-9.991,12.135-12.442h-54.012c7.841,3.332,7.317,9.238,6.625,11.662l-15.505,49.547
	c-2.089,0.353-45.55,11.195-21.226-64.854C279.374,130.455,294.154,100.549,318.029,94.715"/>
</svg>
