<?xml version="1.0" encoding="UTF-8" standalone="no"?>
<svg
   xmlns:dc="http://purl.org/dc/elements/1.1/"
   xmlns:cc="http://creativecommons.org/ns#"
   xmlns:rdf="http://www.w3.org/1999/02/22-rdf-syntax-ns#"
   xmlns:svg="http://www.w3.org/2000/svg"
   xmlns="http://www.w3.org/2000/svg"
   viewBox="0 0 347.716 302.36267"
   height="302.36267"
   width="347.716"
   xml:space="preserve"
   id="svg2"
   version="1.1"><metadata
     id="metadata8"><rdf:RDF><cc:Work
         rdf:about=""><dc:format>image/svg+xml</dc:format><dc:type
           rdf:resource="http://purl.org/dc/dcmitype/StillImage" /></cc:Work></rdf:RDF></metadata><defs
     id="defs6"><clipPath
       id="clipPath18"
       clipPathUnits="userSpaceOnUse"><path
         id="path16"
         d="M 0,226.772 H 260.787 V 0 H 0 Z" /></clipPath></defs><g
     transform="matrix(1.3333333,0,0,-1.3333333,0,302.36267)"
     id="g10"><g
       id="g12"><g
         clip-path="url(#clipPath18)"
         id="g14"><g
           transform="translate(46.6997,77.8607)"
           id="g20"><path
             id="path22"
             style="fill:#252422;fill-opacity:1;fill-rule:nonzero;stroke:none"
             d="M 0,0 V 8.72 H 3.635 C 4.438,8.72 5.101,8.682 5.638,8.597 6.167,8.513 6.665,8.389 7.141,8.224 7.99,7.932 8.665,7.403 9.074,6.664 9.471,5.965 9.67,5.191 9.669,4.379 9.67,3.621 9.492,2.896 9.141,2.228 8.77,1.511 8.131,0.963 7.306,0.597 6.801,0.359 6.221,0.206 5.564,0.119 4.924,0.04 4.214,0 3.436,0 Z M -4.229,-13.014 H 0 v 9.45 h 4.107 c 0.945,0 1.882,0.072 2.804,0.211 0.906,0.138 1.8,0.383 2.674,0.734 0.686,0.294 1.292,0.692 1.828,1.204 0.545,0.521 1.002,1.102 1.372,1.744 0.371,0.643 0.658,1.345 0.856,2.105 0.2,0.763 0.299,1.516 0.299,2.261 -10e-4,1.345 -0.296,2.596 -0.893,3.778 -0.584,1.151 -1.474,2.007 -2.734,2.599 -0.979,0.478 -2.014,0.796 -3.108,0.961 -1.112,0.166 -2.332,0.25 -3.649,0.25 h -7.785 z" /></g><g
           transform="translate(75.5749,68.016)"
           id="g24"><path
             id="path26"
             style="fill:#252422;fill-opacity:1;fill-rule:nonzero;stroke:none"
             d="m 0,0 c -1.174,0 -2.234,0.267 -3.144,0.817 -0.887,0.534 -1.643,1.254 -2.257,2.148 -0.612,0.888 -1.065,1.905 -1.368,3.043 -0.299,1.13 -0.447,2.296 -0.447,3.491 0,1.195 0.148,2.36 0.447,3.49 0.303,1.136 0.756,2.154 1.368,3.044 0.614,0.891 1.37,1.615 2.257,2.148 0.91,0.548 1.97,0.817 3.144,0.817 1.174,0 2.245,-0.269 3.172,-0.813 C 4.09,17.653 4.861,16.927 5.478,16.033 6.089,15.143 6.543,14.125 6.845,12.988 7.142,11.859 7.293,10.694 7.293,9.499 7.293,8.304 7.142,7.138 6.845,6.008 6.543,4.87 6.089,3.853 5.478,2.965 4.861,2.069 4.09,1.347 3.174,0.815 2.246,0.268 1.179,0 0.007,0 Z m -5.096,21.552 c -1.466,-0.76 -2.667,-1.747 -3.619,-2.978 -0.963,-1.237 -1.684,-2.645 -2.166,-4.233 -0.484,-1.597 -0.726,-3.212 -0.726,-4.842 0,-1.632 0.242,-3.246 0.726,-4.843 0.482,-1.588 1.203,-2.993 2.166,-4.231 0.952,-1.231 2.155,-2.229 3.622,-3 1.445,-0.759 3.132,-1.146 5.093,-1.146 1.983,0 3.687,0.387 5.129,1.146 1.469,0.772 2.684,1.771 3.666,3.005 0.987,1.236 1.718,2.639 2.201,4.226 0.485,1.597 0.727,3.212 0.727,4.843 0,1.629 -0.242,3.245 -0.725,4.84 -0.485,1.588 -1.216,2.993 -2.203,4.232 -0.981,1.23 -2.196,2.221 -3.664,2.981 C 3.69,22.299 1.984,22.679 0,22.679 c -1.962,0 -3.65,-0.38 -5.096,-1.127" /></g><g
           transform="translate(98.7249,89.9026)"
           id="g28"><path
             id="path30"
             style="fill:#252422;fill-opacity:1;fill-rule:nonzero;stroke:none"
             d="m 0,0 c -1.338,-0.526 -2.504,-1.327 -3.523,-2.421 -1.014,-1.086 -1.837,-2.459 -2.46,-4.132 -0.621,-1.651 -0.936,-3.633 -0.935,-5.953 -10e-4,-2.11 0.276,-3.975 0.82,-5.595 0.547,-1.626 1.317,-2.993 2.305,-4.105 0.992,-1.117 2.167,-1.957 3.545,-2.532 1.383,-0.576 2.906,-0.869 4.579,-0.869 2.09,0 3.822,0.425 5.229,1.253 l 0.244,-0.415 -0.243,0.416 c 1.306,0.763 2.515,2.051 3.607,3.886 l -3.302,2.012 c -0.327,-0.559 -0.655,-1.038 -0.995,-1.434 -0.417,-0.485 -0.854,-0.884 -1.321,-1.192 -0.464,-0.303 -0.958,-0.518 -1.476,-0.637 -0.497,-0.114 -1.013,-0.169 -1.544,-0.169 -0.993,0 -1.929,0.229 -2.786,0.686 -0.851,0.452 -1.594,1.092 -2.222,1.902 -0.633,0.816 -1.125,1.802 -1.479,2.95 -0.357,1.154 -0.533,2.439 -0.533,3.843 0,1.586 0.182,2.978 0.554,4.179 0.368,1.185 0.855,2.186 1.474,3.002 0.614,0.816 1.348,1.434 2.183,1.838 0.819,0.397 1.685,0.6 2.573,0.6 1.397,0.002 2.587,-0.402 3.464,-1.236 C 8.469,-4.8 9.076,-5.628 9.582,-6.6 l 3.452,1.934 c -0.384,0.779 -0.821,1.479 -1.307,2.103 -0.56,0.723 -1.205,1.328 -1.937,1.824 C 9.061,-0.243 8.239,0.136 7.313,0.398 6.391,0.66 5.346,0.792 4.176,0.792 2.738,0.792 1.352,0.53 0,0" /></g><g
           transform="translate(137.1085,64.8466)"
           id="g32"><path
             id="path34"
             style="fill:#252422;fill-opacity:1;fill-rule:nonzero;stroke:none"
             d="M 0,0 V 25.297 H -4.35 V 14.902 h -11.402 l -10e-4,10.395 h -4.35 V 0 h 4.351 V 11.104 H -4.35 V 0 Z" /></g><g
           transform="translate(149.0475,73.6049)"
           id="g36"><path
             id="path38"
             style="fill:#252422;fill-opacity:1;fill-rule:nonzero;stroke:none"
             d="M 0,0 3.646,9.285 4.096,10.43 8.191,0 Z M 16.327,-8.759 5.782,16.541 H 2.689 L -7.706,-8.758 h 4.314 l 2.163,5.276 H 9.542 l 2.125,-5.277 z" /></g><g
           transform="translate(189.7537,64.8458)"
           id="g40"><path
             id="path42"
             style="fill:#252422;fill-opacity:1;fill-rule:nonzero;stroke:none"
             d="M 0,0 V 25.299 H -4.35 V 14.903 h -11.401 v 10.396 h -4.351 V 0.001 h 4.351 V 11.105 H -4.35 L -4.35,0 Z" /></g><g
           transform="translate(207.1297,68.0163)"
           id="g44"><path
             id="path46"
             style="fill:#252422;fill-opacity:1;fill-rule:nonzero;stroke:none"
             d="m 0,0 c -1.175,-0.001 -2.236,0.267 -3.142,0.817 -0.89,0.534 -1.644,1.254 -2.257,2.147 -0.611,0.889 -1.068,1.905 -1.368,3.044 -0.299,1.129 -0.451,2.296 -0.449,3.491 -0.002,1.197 0.15,2.36 0.449,3.49 0.3,1.137 0.757,2.155 1.368,3.046 0.613,0.89 1.367,1.613 2.255,2.146 0.908,0.548 1.969,0.818 3.144,0.817 1.175,10e-4 2.245,-0.269 3.175,-0.812 C 4.09,17.652 4.864,16.929 5.476,16.032 6.089,15.143 6.542,14.125 6.845,12.989 7.144,11.859 7.296,10.696 7.293,9.499 7.296,8.304 7.144,7.137 6.845,6.007 6.542,4.872 6.089,3.853 5.477,2.965 4.864,2.069 4.089,1.348 3.175,0.815 2.246,0.268 1.178,0 0.007,0 Z m -5.095,21.551 c -1.466,-0.759 -2.667,-1.749 -3.621,-2.977 -0.961,-1.237 -1.679,-2.645 -2.162,-4.235 -0.486,-1.595 -0.727,-3.21 -0.727,-4.84 0,-1.632 0.241,-3.245 0.727,-4.843 0.483,-1.588 1.201,-2.993 2.162,-4.231 0.954,-1.231 2.157,-2.229 3.624,-3.001 1.444,-0.758 3.133,-1.145 5.092,-1.145 1.982,0 3.686,0.389 5.131,1.145 1.467,0.773 2.684,1.772 3.665,3.006 0.985,1.236 1.716,2.642 2.2,4.226 0.486,1.598 0.728,3.211 0.728,4.843 0,1.63 -0.242,3.245 -0.728,4.84 -0.484,1.588 -1.215,2.993 -2.2,4.23 -0.981,1.232 -2.195,2.223 -3.662,2.982 -1.446,0.748 -3.15,1.128 -5.134,1.128 -1.96,0 -3.65,-0.38 -5.095,-1.128" /></g><g
           transform="translate(169.7441,143.1503)"
           id="g48"><path
             id="path50"
             style="fill:#e53025;fill-opacity:1;fill-rule:nonzero;stroke:none"
             d="m 0,0 c -3.575,4.913 -7.679,6.41 -11.25,7.964 -0.023,-0.315 -0.055,-0.616 -0.097,-0.947 -0.367,-2.701 -0.202,-5.227 0.081,-8.224 0.298,-3.325 1.973,-6.581 1.839,-9.7 -0.284,-6.247 -3.33,-11.691 -7.93,-15.111 -1.681,-1.341 -2.937,-3.079 -3.81,-4.809 2.309,0.138 4.295,0.323 7.199,0.831 0.031,0.006 0.062,0.012 0.094,0.018 8.461,7.114 13.902,17.702 14.124,29.567 C 0.166,-0.272 0.083,-0.134 0,0 m -63.65,-15.901 c -1.653,1.468 -3.067,2.7 -4.353,4.514 -1.279,1.78 -2.302,4.121 -2.685,6.744 0.055,2.351 0.692,4.378 1.464,6.22 v 0.01 l -0.102,0.051 -0.062,-0.014 -0.045,0.058 c -2.415,1.277 -4.64,2.816 -6.719,4.657 -0.36,0.262 -1.06,0.984 -1.06,0.984 -0.039,0.039 -0.079,0.074 -0.117,0.113 -0.234,0.252 -0.515,0.515 -0.829,0.787 -0.513,-2.546 -0.785,-5.179 -0.785,-7.877 0,-6.918 1.777,-13.42 4.894,-19.077 0.259,-0.11 0.521,-0.214 0.788,-0.31 1.02,-0.358 2.125,-0.671 3.343,-1.013 2.32,-0.613 5.011,-1.198 7.676,-1.885 1.392,-0.341 2.763,-0.715 4.098,-1.162 0.952,-0.323 2.318,-0.86 3.421,-1.436 2.3,-1.191 5.078,-1.623 8.17,-2.563 2.307,-0.966 4.735,-1.757 7.284,-2.352 0.455,1.398 0.955,2.698 1.509,3.83 -8.558,-0.762 -17.939,2.339 -25.89,9.721" /></g><g
           transform="translate(108.2132,157.7589)"
           id="g52"><path
             id="path54"
             style="fill:#e60c80;fill-opacity:1;fill-rule:nonzero;stroke:none"
             d="M 0,0 C 1.365,-0.382 1.84,1.719 3.587,2.496 3.715,2.63 3.602,2.648 3.775,2.257 4.662,1.97 4.313,1.515 4.786,1.794 6.277,2.506 7.559,3.509 9.056,3.618 9.721,4.103 10.909,1.962 11.56,2.434 13.077,3.082 17.357,5.728 14.85,5.616 11.056,5.301 8.69,4.581 5.508,3.931 L 4.566,3.531 4.1,3.328 4.092,3.324 C 3.165,3.189 3.835,3.287 3.628,3.256 H 3.626 L 3.623,3.253 3.611,3.246 3.585,3.232 3.441,3.147 3.244,3.034 1.664,2.112 C 0.555,1.528 0.625,1.222 -0.603,0.729 -0.603,0.729 -0.666,0.158 0,0 m 30.573,0.615 c -0.084,0.001 -0.166,-0.001 -0.249,0 C 29.492,0.44 30.222,2.3 29.793,2.212 27.305,2.567 24.873,0.492 23.497,1.304 22.93,1.543 22.369,1.762 21.824,1.989 21.794,2.15 21.003,2.401 20.64,2.601 20.042,2.781 19.441,2.964 18.785,2.94 L 17.514,2.539 C 14.457,1.608 11.159,0.566 8.212,-0.445 l 0.051,-0.176 c -0.34,-0.056 -0.681,-0.132 -1.022,-0.216 2.224,-2.379 3.085,-2.128 3.077,-2.137 4.303,0.24 8.333,-0.241 12.194,-0.997 0.354,0.325 0.651,0.725 1.006,0.415 0.232,-0.406 0.483,-0.666 0.74,-0.885 0.54,-0.179 1.078,-0.34 1.604,-0.538 l 0.615,-0.03 -0.202,-0.244 c 1.209,-0.459 2.277,-0.823 3.438,-1.404 0.293,-0.061 0.575,-0.125 0.816,-0.15 0.156,-0.019 0.312,-0.042 0.466,-0.065 0.035,1.622 0.025,2.914 -0.315,5.446 -0.016,0.691 -0.055,1.37 -0.107,2.041 M 20.201,-37.847 c -2.722,1.012 -5.44,1.868 -8.168,3.075 -2.94,1.986 -5.24,3.378 -8.24,6.222 -1.895,1.948 3.155,0.242 4.761,-0.474 0.813,-0.199 0.127,-2.6 0.994,-2.772 1.195,-1.116 2.915,-1.386 4.571,-2.021 0.839,-0.1 -0.626,-0.598 -0.196,-0.654 2.124,-1.107 5.195,-1.063 6.042,-2.331 0.72,-0.884 1.374,-1.668 1.999,-2.474 -0.538,0.529 -1.061,1.063 -1.763,1.429 m -0.674,14.233 c -4.578,2.119 -9.407,3.678 -14.036,5.316 1.512,-2.316 3.259,-4.537 5.356,-6.63 0,0.009 0.237,-0.812 0.43,-1.753 -0.488,0.105 -1.311,0.284 -1.312,0.284 -0.05,2.116 -1.525,2.882 -3,3.807 l -0.297,-1.196 c 0.656,-0.617 1.021,-1.589 0.924,-0.816 -0.142,0.869 1.553,-1.892 0.395,-1.481 -2.163,0.948 -4.302,1.883 -6.331,3.262 -0.408,0.252 -0.799,0.525 -1.177,0.795 -0.456,0.539 -0.751,1.14 -1.026,1.751 -0.251,0.965 -0.523,2.005 -0.85,3.093 -0.268,1.532 -4.665,1.938 -6.18,3.838 -0.07,0.043 -0.102,0.158 -0.116,0.314 -0.771,-1.842 -1.41,-3.868 -1.463,-6.221 0.381,-2.623 1.405,-4.965 2.685,-6.744 1.285,-1.814 2.699,-3.047 4.352,-4.515 7.949,-7.381 17.33,-10.482 25.886,-9.721 0.224,0.461 0.457,0.898 0.701,1.298 2.514,3.734 4.207,7.836 5.238,11.846 -0.34,0.079 -0.672,0.149 -1.012,0.231 -3.116,0.768 -6.162,1.9 -9.167,3.242" /></g><g
           transform="translate(158.4773,141.9429)"
           id="g56"><path
             id="path58"
             style="fill:#14375e;fill-opacity:1;fill-rule:nonzero;stroke:none"
             d="m 0,0 c -0.282,2.997 -0.447,5.524 -0.08,8.224 0.041,0.332 0.074,0.632 0.096,0.948 -0.408,0.179 -0.814,0.357 -1.207,0.542 -1.397,0.852 -2.674,2.004 -3.917,3.084 0.09,-0.206 0.176,-0.413 0.269,-0.626 0.421,-1.02 0.821,-2.037 1.297,-3.188 0.176,-0.534 0.463,-1.394 0.651,-1.977 0.099,-0.374 0.2,-0.748 0.277,-1.102 0.504,-2.156 0.297,-3.876 0.729,-5.75 0.206,-0.925 0.566,-2.095 0.678,-2.962 l 0.047,-0.624 0.015,-0.188 c -0.033,-0.347 -0.038,-0.693 -0.084,-1.053 -0.138,-0.545 -0.294,-1.093 -0.469,-1.642 1.046,-1.506 1.802,-3.006 1.891,-4.13 0.029,-0.203 0.026,-0.382 0.003,-0.534 -0.005,-0.222 -0.008,-0.376 -0.013,-0.494 -0.144,-0.083 -0.279,-0.16 -0.054,-0.028 -0.332,-0.134 -0.673,-0.284 -0.994,-0.399 -0.654,-0.259 -1.28,-0.444 -1.907,-0.618 -0.646,-0.167 -1.351,-0.28 -2.091,-0.358 -0.795,-1.146 -1.714,-2.239 -2.78,-3.245 -1.726,-1.641 -3.689,-3.02 -5.759,-4.114 -2.838,-1.461 -4.904,-2.35 -7.542,-3.108 -1.794,-0.546 -3.652,-0.903 -5.549,-1.071 -0.555,-1.134 -1.054,-2.434 -1.509,-3.832 1.785,-0.417 3.63,-0.741 5.538,-0.947 3.533,-0.459 8.1,-0.701 12.481,-0.433 0.028,0.003 0.056,0.004 0.083,0.007 0.871,1.728 2.13,3.467 3.809,4.807 4.603,3.42 7.646,8.864 7.932,15.111 C 1.975,-6.579 0.297,-3.325 0,0 m -57.958,2.784 0.002,0.008 -0.003,0.002 c 0,-0.002 0,-0.007 0.001,-0.01" /></g><g
           transform="translate(115.8058,133.1572)"
           id="g60"><path
             id="path62"
             style="fill:#812977;fill-opacity:1;fill-rule:nonzero;stroke:none"
             d="m 0,0 c 0.096,-0.773 -0.268,0.199 -0.925,0.815 l 0.298,1.197 c 1.475,-0.925 2.949,-1.69 2.999,-3.807 0.002,0 0.825,-0.179 1.312,-0.284 -0.192,0.94 -0.429,1.762 -0.429,1.753 -2.098,2.093 -3.846,4.314 -5.356,6.63 -1.399,0.495 -2.781,0.997 -4.13,1.523 -1.503,0.58 -3.133,1.227 -4.685,1.894 -0.798,0.333 -1.654,0.669 -2.479,1.023 l -1.251,0.544 -0.554,0.246 -0.083,0.044 c -0.001,-0.003 -0.002,-0.006 -0.002,-0.008 0.012,-0.157 0.045,-0.269 0.115,-0.313 1.516,-1.9 5.913,-2.305 6.18,-3.838 0.328,-1.087 0.6,-2.127 0.851,-3.092 0.273,-0.611 0.569,-1.213 1.025,-1.751 0.377,-0.27 0.77,-0.543 1.177,-0.796 2.029,-1.379 4.167,-2.313 6.33,-3.262 C 1.552,-1.892 -0.144,0.869 0,0 m 6.33,-9.87 c -0.429,0.056 1.036,0.554 0.196,0.654 -1.654,0.636 -3.375,0.906 -4.572,2.022 -0.867,0.173 -0.179,2.573 -0.992,2.771 -1.606,0.717 -6.658,2.424 -4.761,0.476 2.998,-2.845 5.3,-4.237 8.241,-6.223 2.727,-1.207 5.445,-2.062 8.166,-3.075 0.703,-0.367 1.224,-0.9 1.764,-1.429 -0.625,0.807 -1.281,1.59 -1.999,2.474 -0.847,1.268 -3.919,1.224 -6.043,2.33 M 41.51,5.355 41.464,5.98 c -0.013,0.107 -0.032,0.221 -0.052,0.337 -0.148,0.817 -0.447,1.815 -0.625,2.625 -0.433,1.873 -0.225,3.593 -0.73,5.75 -0.009,0.044 -0.022,0.091 -0.032,0.135 -0.043,0.185 -0.09,0.373 -0.138,0.565 -0.036,0.133 -0.071,0.267 -0.107,0.401 -0.188,0.583 -0.474,1.443 -0.65,1.977 -0.002,0.005 -0.005,0.01 -0.008,0.016 -0.283,0.684 -0.54,1.322 -0.788,1.937 -0.056,0.138 -0.111,0.279 -0.168,0.416 -0.11,0.274 -0.222,0.547 -0.334,0.82 -0.093,0.211 -0.179,0.418 -0.268,0.625 10e-4,0 10e-4,-0.001 10e-4,-0.001 v 0.001 c -1.053,0.916 -2.079,1.781 -3.129,2.367 -3.845,2.076 -6.651,2.452 -10.041,2.857 2.208,-1.625 -0.755,-0.833 -0.868,-1.589 -0.18,-0.003 -0.364,-0.002 -0.547,-0.002 0.054,-0.671 0.091,-1.35 0.107,-2.042 0.34,-2.532 0.351,-3.823 0.315,-5.446 0.796,-0.125 1.506,-0.366 1.615,-1.312 l 0.609,-0.344 0.134,-0.074 c 0.069,-0.099 0.705,-0.201 0.744,-0.289 0.901,-0.503 0.898,-0.66 1.716,-1.203 1.562,-1.035 3.078,-2.19 4.561,-3.443 2.344,-2.05 4.581,-4.197 6.473,-6.391 0.615,-0.704 1.203,-1.453 1.72,-2.2 0.174,0.549 0.331,1.097 0.468,1.642 0.046,0.359 0.053,0.705 0.085,1.051 z M 31.305,-4.054 c -3.115,0.296 -6.1,0.852 -9.192,1.569 -1.031,-4.01 -2.724,-8.111 -5.238,-11.846 -0.242,-0.397 -0.471,-0.838 -0.695,-1.297 1.896,0.169 3.754,0.526 5.547,1.071 2.639,0.759 4.705,1.648 7.541,3.109 2.071,1.095 4.035,2.473 5.76,4.114 1.066,1.007 1.986,2.099 2.78,3.245 -1.961,-0.205 -4.201,-0.133 -6.503,0.035" /></g><g
           transform="translate(148.5772,112.3238)"
           id="g64"><path
             id="path66"
             style="fill:#ffe500;fill-opacity:1;fill-rule:nonzero;stroke:none"
             d="M 0,0 C -0.871,-1.727 -1.354,-3.446 -1.481,-4.745 1.695,-3.267 4.642,-1.38 7.293,0.849 7.261,0.843 7.23,0.836 7.199,0.831 4.296,0.323 2.31,0.136 0,0 m 2.722,64.814 c 0.261,-0.374 0.516,-0.75 0.755,-1.128 1.615,-2.568 2.751,-5.192 3.576,-7.781 0.211,-0.65 0.377,-1.29 0.553,-1.939 l 0.227,-0.961 0.108,-0.483 0.016,-0.075 c 0.592,-2.41 0.164,-0.673 0.297,-1.212 L 8.255,51.218 8.258,51.152 8.265,51.018 C 8.286,50.317 8.321,49.552 8.409,48.564 8.693,47.123 9.21,45.439 9.59,43.352 9.778,42.3 9.91,41.146 9.948,39.928 9.953,39.493 9.941,39.133 9.917,38.79 c 3.571,-1.553 7.676,-3.051 11.25,-7.963 0.083,-0.133 0.167,-0.272 0.249,-0.409 0.005,0.25 0.01,0.502 0.01,0.754 0,14.201 -7.474,26.653 -18.704,33.642 m -19.443,-5.036 c -3.51,2.056 -5.051,2.988 -8.879,3.734 -1.367,0.413 -2.457,0.623 -3.726,0.55 -0.637,-0.027 -1.332,-0.112 -2.078,-0.241 l -0.279,-0.045 -0.068,-0.011 c -0.66,-0.112 -0.215,-0.036 -0.378,-0.063 l -0.116,-0.017 -0.46,-0.059 c -0.314,-0.019 -0.603,-0.112 -0.906,-0.17 -2.382,-0.544 -4.503,-2.015 -5.993,-4.18 -0.749,-1.073 -1.342,-2.302 -1.747,-3.63 -0.106,-0.297 -0.162,-0.609 -0.244,-0.918 0.191,0.136 0.437,0.123 0.689,0.049 l 0.145,-0.061 c 0.47,-0.141 0.81,-0.377 0.921,-0.078 1.034,1.478 1.68,3.22 2.394,4.682 1.718,0.904 3.486,1.707 5.435,2.302 1.307,0.398 2.623,0.648 3.897,0.718 0.119,-0.013 1.043,-0.124 1.425,-0.212 l 0.328,-0.077 c 0.602,-0.135 1.179,-0.331 1.725,-0.595 2.969,-1.453 6.345,-2.962 7.778,-3.998 0.989,-0.514 1.842,-0.953 2.522,-1.342 0.321,-0.195 0.698,-0.373 0.944,-0.555 l 0.419,-0.257 0.106,-0.06 0.027,-0.015 0.005,-0.003 c 0.059,-0.031 0.367,-0.191 0.663,-0.344 -1.093,2.001 -2.579,3.68 -4.549,4.896 m -31.5,-27.328 0.062,0.016 0.102,-0.054 c -0.05,0.664 0.253,2.092 -0.326,2.45 -1.285,1.299 -0.295,0.721 -0.973,2.137 -0.735,0.477 0.742,2.58 0.019,3.204 -0.625,0.86 -2.091,2.511 -2.983,4.185 -1.009,1.223 -1.464,3.308 -1.578,3.896 -1.391,-2.9 -2.439,-5.997 -3.093,-9.235 0.314,-0.272 0.595,-0.534 0.829,-0.786 0.039,-0.039 0.078,-0.074 0.117,-0.113 0,0 0.699,-0.724 1.06,-0.985 2.08,-1.84 4.306,-3.381 6.72,-4.656 z M -33.556,6.29 c -1.102,0.576 -2.468,1.113 -3.422,1.434 -1.334,0.45 -2.705,0.823 -4.097,1.165 -2.665,0.685 -5.356,1.271 -7.677,1.883 -1.216,0.343 -2.322,0.655 -3.34,1.013 -0.268,0.096 -0.531,0.202 -0.792,0.309 6.386,-11.59 18.407,-19.638 32.371,-20.452 l 0.007,0.054 0.025,0.156 0.013,0.081 0.005,0.038 v 0.003 c -0.009,-0.044 -0.018,-0.08 0,0 l 0.001,0.004 c 0.01,0.047 0.012,0.058 0.011,0.05 0.02,0.092 0.058,0.254 0.12,0.535 l 0.003,0.012 0.003,0.022 0.151,0.714 c 0.201,0.959 0.417,1.935 0.647,2.909 0.419,1.768 0.893,3.523 1.425,5.154 -2.547,0.594 -4.976,1.387 -7.284,2.351 -3.092,0.941 -5.871,1.373 -8.17,2.565" /></g><g
           transform="translate(136.9669,166.9147)"
           id="g68"><path
             id="path70"
             style="fill:#009ad9;fill-opacity:1;fill-rule:nonzero;stroke:none"
             d="M 0,0 C 0.002,-0.001 0.005,-0.003 0.006,-0.003 L 0.009,-0.004 C 0.015,-0.006 0.012,-0.006 0,0 m 1.814,-8.54 c 0.185,0 0.37,-0.002 0.55,10e-4 0.115,0.757 3.078,-0.037 0.868,1.59 3.391,-0.407 6.197,-0.782 10.043,-2.857 1.05,-0.588 2.077,-1.453 3.127,-2.367 -0.371,0.872 -0.725,1.691 -1.078,2.355 l -0.626,1.16 c -0.574,1.063 -0.741,1.356 -1.047,1.9 -0.089,0.155 -0.172,0.293 -0.251,0.422 -0.015,0.026 -0.032,0.051 -0.046,0.076 -0.066,0.103 -0.126,0.195 -0.183,0.279 -0.01,0.015 -0.021,0.034 -0.033,0.048 -10e-4,0.003 -0.003,0.005 -0.004,0.009 -0.035,0.031 -0.072,0.055 -0.109,0.082 -0.015,0.01 -0.027,0.022 -0.042,0.031 -0.006,0.005 -0.015,0.01 -0.022,0.014 -0.078,0.053 -0.166,0.109 -0.261,0.176 -0.025,0.016 -0.046,0.03 -0.073,0.05 -0.07,0.051 -0.142,0.112 -0.224,0.187 -0.278,0.255 -0.659,0.589 -0.921,0.814 -0.043,0.03 -0.088,0.067 -0.13,0.093 -0.797,0.524 -2.015,1.103 -3.714,1.698 -1.297,0.508 -3.696,1.065 -7.065,2.546 l -0.592,0.258 -0.179,0.079 c 0.114,-0.06 0.17,-0.089 0.194,-0.102 -0.013,0.008 -0.035,0.017 -0.068,0.035 0.254,-0.132 -0.104,0.054 -0.491,0.254 1.376,-2.516 2.115,-5.547 2.377,-8.831 m 16.278,-20.544 c -1.893,2.193 -4.13,4.34 -6.473,6.389 -1.482,1.254 -2.999,2.409 -4.56,3.445 -0.818,0.542 -0.816,0.7 -1.717,1.204 -0.037,0.088 -0.675,0.187 -0.745,0.287 l -0.134,0.073 -0.609,0.345 c -0.107,0.947 -0.817,1.187 -1.612,1.312 -0.023,-1.006 -0.064,-2.14 -0.057,-3.777 0.006,-1.762 0.041,-3.514 0.079,-5.26 -0.019,-1.493 -0.014,-2.946 -0.168,-4.467 -0.181,-2.148 -0.554,-4.413 -1.145,-6.71 3.092,-0.716 6.08,-1.273 9.191,-1.568 2.303,-0.17 4.544,-0.24 6.505,-0.036 1.436,2.073 2.456,4.322 3.166,6.563 -0.519,0.747 -1.105,1.494 -1.721,2.2 m -44.621,5.978 c 0.134,0.461 0.159,0.855 0.119,1.209 -0.279,0.543 -0.558,1.083 -0.805,1.635 l -0.116,0.129 c -0.572,1.228 -1.191,2.789 -1.686,3.999 -0.19,0.259 -0.366,0.514 -0.535,0.711 -0.688,0.793 -1.366,1.587 -0.737,2.539 l -0.168,0.498 c -0.037,0.109 -0.199,0.613 -0.246,0.757 -0.232,0.777 -0.392,1.536 -0.453,2.261 -0.038,0.844 -0.036,1.639 0.225,2.396 l 0.074,0.285 0.035,0.142 10e-4,0.001 v 10e-4 c 0.003,0.054 0.037,0.42 0.057,0.627 v 0.008 l 10e-4,0.009 0.003,0.021 0.004,0.044 0.009,0.085 0.069,0.684 c 0.027,0.435 0.118,0.957 0.192,1.461 0.12,0.812 0.299,1.709 0.37,2.682 l 0.015,0.215 c 0.078,0.41 0.065,0.57 0.116,0.844 -0.018,-0.014 -0.035,-0.029 -0.054,-0.045 l -0.074,-0.067 c -0.047,-0.066 -0.094,-0.144 -0.128,-0.25 -0.278,-0.498 -0.644,-1.059 -0.86,-1.555 -0.541,-1.229 -0.86,-2.328 -1.357,-3.466 -0.024,-0.053 -0.052,-0.195 -0.076,-0.248 -0.086,-0.193 -0.133,-0.339 -0.228,-0.528 -0.033,-0.067 -0.066,-0.135 -0.1,-0.201 -0.125,-0.242 -0.257,-0.48 -0.4,-0.711 -0.154,-1.138 -2.94,-1.629 -3.025,-2.884 -0.022,-0.077 -0.045,-0.16 -0.065,-0.245 -0.007,-0.026 -0.013,-0.055 -0.02,-0.082 -0.014,-0.06 -0.027,-0.121 -0.039,-0.182 -0.008,-0.033 -0.014,-0.067 -0.02,-0.1 -0.011,-0.061 -0.023,-0.123 -0.034,-0.188 -0.006,-0.033 -0.01,-0.066 -0.016,-0.1 -0.012,-0.078 -0.023,-0.157 -0.034,-0.236 -0.003,-0.021 -0.006,-0.04 -0.009,-0.061 -0.012,-0.101 -0.022,-0.204 -0.034,-0.308 -0.003,-0.031 -0.005,-0.063 -0.009,-0.094 -0.006,-0.076 -0.012,-0.152 -0.019,-0.229 -0.003,-0.038 -0.005,-0.078 -0.008,-0.118 -0.006,-0.07 -0.01,-0.143 -0.013,-0.215 -10e-4,-0.041 -0.005,-0.081 -0.006,-0.12 -0.005,-0.077 -0.008,-0.156 -0.01,-0.233 -0.001,-0.035 -0.004,-0.07 -0.005,-0.104 -0.002,-0.11 -0.005,-0.221 -0.006,-0.331 v -0.077 -0.259 c 0,-0.042 10e-4,-0.082 10e-4,-0.125 0.001,-0.071 0.003,-0.142 0.004,-0.214 10e-4,-0.041 10e-4,-0.084 0.004,-0.126 0.002,-0.074 0.004,-0.147 0.007,-0.22 0.003,-0.037 0.004,-0.075 0.006,-0.112 0.005,-0.099 0.01,-0.199 0.015,-0.295 0.002,-0.02 0.003,-0.039 0.005,-0.058 0.005,-0.093 0.013,-0.186 0.019,-0.276 0.004,-0.037 0.008,-0.073 0.011,-0.11 0.005,-0.065 0.012,-0.13 0.019,-0.193 0.003,-0.04 0.008,-0.078 0.012,-0.117 0.006,-0.061 0.013,-0.121 0.021,-0.18 0.005,-0.035 0.008,-0.072 0.013,-0.106 0.01,-0.067 0.019,-0.132 0.029,-0.195 0.003,-0.025 0.007,-0.051 0.01,-0.074 0.015,-0.085 0.028,-0.166 0.043,-0.244 0.005,-0.025 0.009,-0.05 0.015,-0.076 0.01,-0.052 0.022,-0.104 0.032,-0.153 0.006,-0.029 0.013,-0.056 0.019,-0.084 0.011,-0.044 0.022,-0.084 0.033,-0.125 0.008,-0.026 0.014,-0.053 0.021,-0.076 0.012,-0.043 0.024,-0.081 0.037,-0.118 0.007,-0.019 0.014,-0.04 0.02,-0.057 0.019,-0.052 0.038,-0.101 0.058,-0.144 0.006,-0.011 0.011,-0.02 0.017,-0.031 0.016,-0.031 0.03,-0.06 0.047,-0.083 0.007,-0.013 0.015,-0.025 0.023,-0.036 0.015,-0.019 0.028,-0.036 0.044,-0.051 0.008,-0.009 0.016,-0.017 0.025,-0.025 0.016,-0.012 0.031,-0.021 0.047,-0.029 0.008,-0.003 0.015,-0.007 0.024,-0.011 0.022,-0.006 0.047,-0.008 0.07,-0.003 h 0.003 c 0.001,0 0.003,0.001 0.004,0.001 0.021,0.007 0.045,0.019 0.069,0.036 0.008,0.005 0.016,0.014 0.024,0.021 0.017,0.015 0.034,0.033 0.053,0.055 0.008,0.011 0.018,0.022 0.027,0.035 0.022,0.03 0.042,0.066 0.065,0.105 0.007,0.016 0.017,0.032 0.027,0.051 0.019,0.04 0.04,0.085 0.061,0.135 0.011,0.027 0.022,0.056 0.034,0.085 0.015,0.041 0.032,0.086 0.048,0.133 0.012,0.035 0.024,0.068 0.035,0.104 0.02,0.06 0.039,0.128 0.059,0.197 0.006,0.023 0.014,0.045 0.021,0.07 1.551,5.339 0.749,3.872 3.543,8.152 -0.717,-3.757 -0.556,-3.938 -2.231,-9.025 -0.583,-1.727 -1.568,-3.501 -2.402,-5.488 l 0.081,-0.043 0.557,-0.247 1.248,-0.543 c 0.825,-0.355 1.682,-0.691 2.48,-1.024 1.552,-0.667 3.181,-1.313 4.684,-1.893 1.35,-0.528 2.732,-1.029 4.129,-1.524 -0.811,1.246 -1.558,2.517 -2.246,3.816 -0.504,0.07 -0.999,0.039 -1.019,0.532" /></g><g
           transform="translate(128.1147,104.2963)"
           id="g72"><path
             id="path74"
             style="fill:#009558;fill-opacity:1;fill-rule:nonzero;stroke:none"
             d="M 0,0 V 0.001 C -0.01,-0.041 -0.017,-0.076 0,0 m 30.556,27.202 c -0.089,1.126 -0.844,2.624 -1.891,4.132 -0.709,-2.24 -1.729,-4.49 -3.166,-6.562 0.741,0.078 1.446,0.191 2.092,0.359 0.627,0.172 1.253,0.357 1.908,0.616 0.32,0.116 0.661,0.265 0.994,0.4 -0.226,-0.132 -0.093,-0.055 0.053,0.028 0.004,0.117 0.007,0.271 0.014,0.494 0.021,0.151 0.025,0.33 -0.004,0.533 M 7.899,8.455 C 5.991,8.66 4.148,8.984 2.362,9.401 1.829,7.771 1.355,6.017 0.936,4.248 0.705,3.274 0.49,2.297 0.287,1.339 L 0.138,0.625 0.134,0.603 0.131,0.591 C 0.069,0.311 0.032,0.148 0.012,0.056 0.013,0.063 0.012,0.054 0,0.004 V 0.002 0 -0.001 L -0.006,-0.04 -0.018,-0.119 -0.042,-0.277 -0.05,-0.33 c 0.774,-0.045 1.553,-0.071 2.338,-0.071 5.965,0 11.621,1.321 16.694,3.684 0.127,1.3 0.61,3.018 1.481,4.745 L 20.38,8.022 C 16,7.753 11.432,7.996 7.899,8.455 M 8.855,62.617 C 8.858,62.616 8.859,62.615 8.861,62.615 8.865,62.612 8.863,62.614 8.855,62.617 M 30.38,46.818 c 0.023,0.343 0.037,0.702 0.032,1.137 -0.039,1.218 -0.171,2.373 -0.359,3.424 -0.38,2.089 -0.898,3.771 -1.181,5.212 -0.089,0.988 -0.123,1.754 -0.145,2.455 l -0.006,0.134 -0.003,0.065 -0.002,0.017 c -0.132,0.54 0.296,-1.198 -0.296,1.212 l -0.017,0.076 -0.11,0.483 -0.223,0.961 c -0.179,0.649 -0.344,1.289 -0.554,1.938 -0.825,2.59 -1.961,5.213 -3.577,7.782 -0.24,0.378 -0.495,0.754 -0.754,1.129 -6.066,3.775 -13.225,5.958 -20.897,5.958 -15.743,0 -29.338,-9.185 -35.722,-22.488 0.114,-0.591 0.569,-2.676 1.577,-3.898 0.892,-1.673 2.358,-3.323 2.982,-4.185 0.723,-0.623 -0.754,-2.727 -0.019,-3.205 0.679,-1.414 -0.313,-0.836 0.972,-2.135 0.581,-0.358 0.276,-1.787 0.329,-2.45 l 0.001,-10e-4 c 0.833,1.988 1.821,3.761 2.403,5.488 1.675,5.087 1.514,5.267 2.231,9.026 -2.792,-4.282 -1.99,-2.815 -3.542,-8.152 -0.721,-2.617 -1.311,0.232 -1.281,3.048 v 0.006 0.016 c 0,0.102 0.003,0.203 0.006,0.303 v 0.011 0.004 c 0.028,0.981 0.135,1.929 0.34,2.611 0.085,1.255 2.87,1.746 3.026,2.885 0.142,0.232 0.273,0.468 0.399,0.71 0.034,0.067 0.067,0.135 0.102,0.202 0.094,0.188 0.139,0.335 0.227,0.528 0.023,0.053 0.051,0.195 0.075,0.247 0.498,1.139 0.816,2.237 1.357,3.468 0.217,0.494 0.58,1.056 0.861,1.554 0.034,0.105 0.079,0.183 0.128,0.25 l 0.075,0.067 c 0.016,0.015 0.034,0.031 0.053,0.044 0.081,0.31 0.137,0.622 0.244,0.92 0.405,1.326 0.999,2.556 1.746,3.629 1.491,2.164 3.612,3.636 5.993,4.179 0.303,0.059 0.593,0.15 0.907,0.172 l 0.46,0.059 0.116,0.016 c 0.161,0.027 -0.282,-0.05 0.377,0.063 l 0.07,0.01 0.276,0.046 c 0.748,0.128 1.442,0.213 2.079,0.241 1.269,0.072 2.36,-0.137 3.726,-0.55 3.828,-0.746 5.37,-1.678 8.88,-3.734 C 5.711,66.59 7.198,64.91 8.29,62.909 8.505,62.798 8.71,62.692 8.808,62.641 l 0.04,-0.02 C 8.819,62.636 8.757,62.668 8.65,62.724 l 0.183,-0.08 0.592,-0.259 c 3.371,-1.481 5.77,-2.036 7.066,-2.546 1.698,-0.594 2.916,-1.173 3.712,-1.697 0.044,-0.026 0.088,-0.063 0.131,-0.093 0.262,-0.226 0.642,-0.559 0.921,-0.814 0.083,-0.075 0.156,-0.136 0.224,-0.187 0.025,-0.02 0.048,-0.034 0.073,-0.051 0.078,-0.054 0.148,-0.101 0.216,-0.143 0.077,-0.051 0.147,-0.099 0.217,-0.159 0,0 0.001,0 0.001,-10e-4 0.148,-0.214 0.322,-0.49 0.516,-0.834 0.308,-0.544 0.475,-0.837 1.048,-1.899 L 24.176,52.8 c 0.353,-0.664 0.707,-1.483 1.079,-2.355 1.243,-1.081 2.52,-2.231 3.917,-3.085 0.394,-0.184 0.799,-0.363 1.208,-0.542" /></g><g
           transform="translate(130.3937,185.8794)"
           id="g76"><path
             id="path78"
             style="fill:#ffffff;fill-opacity:1;fill-rule:nonzero;stroke:none"
             d="m 0,0 c -23.38,0 -42.401,-19.02 -42.401,-42.399 0,-23.382 19.021,-42.404 42.401,-42.404 23.38,0 42.401,19.022 42.401,42.404 C 42.401,-19.02 23.38,0 0,0" /></g><g
           transform="translate(169.7066,143.1325)"
           id="g80"><path
             id="path82"
             style="fill:#e52c25;fill-opacity:1;fill-rule:nonzero;stroke:none"
             d="m 0,0 c -3.574,4.91 -7.673,6.402 -11.244,7.958 -0.02,-0.314 -0.05,-0.616 -0.095,-0.945 -0.365,-2.7 -0.202,-5.223 0.082,-8.219 0.299,-3.324 1.971,-6.575 1.839,-9.693 -0.285,-6.243 -3.327,-11.684 -7.927,-15.099 -1.676,-1.341 -2.934,-3.078 -3.808,-4.805 2.309,0.136 4.293,0.323 7.195,0.828 0.032,0.006 0.062,0.014 0.096,0.02 C -5.408,-22.847 0.027,-12.268 0.25,-0.41 0.165,-0.272 0.081,-0.133 0,0 m -63.604,-15.889 c -1.65,1.467 -3.062,2.7 -4.349,4.509 -1.275,1.781 -2.3,4.121 -2.682,6.74 0.055,2.348 0.691,4.376 1.464,6.215 -0.004,0.003 -0.004,0.008 -0.004,0.008 l -0.098,0.055 -0.065,-0.014 -0.042,0.058 c -2.412,1.273 -4.636,2.813 -6.716,4.652 -0.361,0.261 -1.059,0.983 -1.059,0.983 -0.038,0.041 -0.079,0.076 -0.115,0.112 -0.236,0.253 -0.514,0.518 -0.828,0.787 -0.516,-2.543 -0.785,-5.174 -0.785,-7.871 0,-6.91 1.774,-13.409 4.889,-19.062 0.261,-0.11 0.522,-0.214 0.788,-0.31 1.018,-0.357 2.124,-0.67 3.34,-1.012 2.319,-0.612 5.007,-1.198 7.669,-1.882 1.392,-0.343 2.761,-0.717 4.095,-1.163 0.954,-0.323 2.317,-0.858 3.419,-1.436 2.3,-1.188 5.076,-1.62 8.167,-2.56 2.306,-0.963 4.731,-1.756 7.276,-2.349 0.455,1.394 0.954,2.694 1.508,3.827 -8.551,-0.763 -17.925,2.334 -25.872,9.713" /></g><g
           transform="translate(108.2225,157.7288)"
           id="g84"><path
             id="path86"
             style="fill:#e60c80;fill-opacity:1;fill-rule:nonzero;stroke:none"
             d="M 0,0 C 1.363,-0.38 1.839,1.719 3.585,2.494 3.712,2.627 3.599,2.647 3.77,2.255 4.658,1.969 4.31,1.513 4.783,1.792 6.273,2.505 7.551,3.509 9.049,3.616 9.712,4.101 10.9,1.964 11.551,2.433 13.067,3.08 17.342,5.725 14.837,5.611 11.046,5.297 8.683,4.579 5.503,3.93 L 4.561,3.529 4.094,3.327 4.09,3.324 C 3.164,3.187 3.83,3.286 3.624,3.254 H 3.623 L 3.62,3.251 3.607,3.244 3.582,3.23 3.438,3.143 3.24,3.034 1.662,2.111 C 0.554,1.529 0.624,1.22 -0.603,0.731 -0.603,0.731 -0.668,0.16 0,0 m 30.55,0.614 c -0.085,0.003 -0.166,0 -0.249,0 C 29.471,0.44 30.198,2.3 29.77,2.213 27.285,2.567 24.854,0.492 23.478,1.304 c -0.568,0.239 -1.125,0.459 -1.67,0.685 -0.033,0.16 -0.821,0.412 -1.185,0.613 -0.595,0.179 -1.198,0.362 -1.85,0.335 l -1.274,-0.4 C 14.446,1.606 11.151,0.565 8.208,-0.445 L 8.254,-0.621 C 7.917,-0.676 7.575,-0.752 7.236,-0.836 c 2.221,-2.377 3.082,-2.125 3.074,-2.133 4.299,0.24 8.329,-0.244 12.184,-0.999 0.353,0.326 0.65,0.723 1.005,0.415 0.232,-0.406 0.481,-0.664 0.739,-0.885 0.54,-0.176 1.079,-0.339 1.603,-0.535 l 0.616,-0.03 -0.203,-0.247 c 1.21,-0.458 2.277,-0.82 3.436,-1.399 0.293,-0.062 0.575,-0.125 0.816,-0.152 0.156,-0.021 0.31,-0.04 0.466,-0.067 0.035,1.621 0.024,2.914 -0.316,5.444 -0.014,0.69 -0.056,1.368 -0.106,2.038 m -10.365,-38.43 c -2.721,1.011 -5.435,1.864 -8.161,3.07 -2.937,1.985 -5.237,3.376 -8.233,6.217 -1.896,1.947 3.151,0.242 4.759,-0.475 0.809,-0.196 0.125,-2.595 0.991,-2.766 1.195,-1.116 2.912,-1.387 4.566,-2.022 0.84,-0.101 -0.625,-0.598 -0.195,-0.652 2.123,-1.107 5.192,-1.061 6.037,-2.329 0.72,-0.885 1.372,-1.667 1.998,-2.474 -0.538,0.529 -1.061,1.062 -1.762,1.431 m -0.673,14.221 c -4.574,2.117 -9.4,3.675 -14.025,5.313 1.509,-2.317 3.256,-4.536 5.35,-6.627 0,0.009 0.237,-0.812 0.429,-1.751 -0.486,0.103 -1.307,0.284 -1.31,0.284 -0.05,2.114 -1.523,2.88 -2.995,3.805 l -0.299,-1.195 c 0.658,-0.617 1.021,-1.589 0.924,-0.817 -0.141,0.869 1.553,-1.891 0.394,-1.48 -2.162,0.948 -4.3,1.882 -6.328,3.259 -0.404,0.253 -0.796,0.526 -1.174,0.796 -0.457,0.535 -0.75,1.14 -1.026,1.749 -0.25,0.965 -0.522,2.002 -0.846,3.091 -0.271,1.531 -4.663,1.937 -6.177,3.833 -0.071,0.043 -0.102,0.16 -0.116,0.317 -0.772,-1.842 -1.407,-3.867 -1.463,-6.218 0.381,-2.621 1.404,-4.962 2.683,-6.74 1.285,-1.809 2.697,-3.042 4.348,-4.509 7.945,-7.379 17.318,-10.476 25.868,-9.715 0.223,0.461 0.454,0.899 0.698,1.296 2.515,3.732 4.205,7.833 5.234,11.838 -0.336,0.079 -0.669,0.15 -1.008,0.232 -3.115,0.765 -6.16,1.899 -9.161,3.239" /></g><g
           transform="translate(158.4474,141.9265)"
           id="g88"><path
             id="path90"
             style="fill:#1f2b48;fill-opacity:1;fill-rule:nonzero;stroke:none"
             d="m 0,0 c -0.281,2.993 -0.446,5.519 -0.081,8.216 0.043,0.334 0.075,0.632 0.096,0.948 -0.406,0.177 -0.813,0.356 -1.204,0.543 -1.394,0.853 -2.674,2.001 -3.915,3.08 0.09,-0.206 0.177,-0.413 0.27,-0.624 0.422,-1.021 0.817,-2.037 1.297,-3.187 C -3.36,8.442 -3.077,7.583 -2.888,7 -2.79,6.627 -2.69,6.252 -2.613,5.899 c 0.505,-2.156 0.296,-3.871 0.731,-5.745 0.203,-0.925 0.564,-2.094 0.676,-2.958 l 0.046,-0.624 0.018,-0.19 c -0.032,-0.347 -0.038,-0.692 -0.084,-1.051 -0.137,-0.546 -0.296,-1.094 -0.47,-1.642 1.047,-1.504 1.801,-3.005 1.891,-4.127 0.029,-0.201 0.027,-0.382 0.003,-0.532 -0.006,-0.223 -0.009,-0.378 -0.014,-0.494 -0.146,-0.084 -0.279,-0.159 -0.054,-0.03 -0.333,-0.131 -0.671,-0.283 -0.994,-0.397 -0.652,-0.26 -1.279,-0.443 -1.905,-0.617 -0.648,-0.168 -1.349,-0.282 -2.088,-0.356 -0.795,-1.146 -1.717,-2.24 -2.781,-3.245 -1.722,-1.638 -3.687,-3.016 -5.753,-4.11 -2.833,-1.461 -4.899,-2.349 -7.539,-3.109 -1.788,-0.541 -3.646,-0.899 -5.544,-1.067 -0.551,-1.134 -1.052,-2.434 -1.508,-3.831 1.786,-0.415 3.627,-0.739 5.536,-0.945 3.529,-0.459 8.094,-0.7 12.473,-0.432 0.026,0.003 0.052,0.003 0.081,0.006 0.87,1.728 2.129,3.465 3.808,4.802 4.596,3.419 7.639,8.86 7.923,15.101 C 1.972,-6.576 0.299,-3.323 0,0 m -57.913,2.781 0.002,0.006 -0.002,0.003 z" /></g><g
           transform="translate(115.809,133.1467)"
           id="g92"><path
             id="path94"
             style="fill:#712e80;fill-opacity:1;fill-rule:nonzero;stroke:none"
             d="m 0,0 c 0.095,-0.774 -0.269,0.198 -0.924,0.815 l 0.296,1.195 c 1.475,-0.924 2.949,-1.687 2.997,-3.805 0,0 0.825,-0.177 1.311,-0.281 -0.191,0.94 -0.429,1.758 -0.429,1.749 -2.097,2.091 -3.841,4.312 -5.351,6.626 -1.398,0.496 -2.778,0.994 -4.126,1.523 -1.502,0.576 -3.132,1.224 -4.68,1.89 -0.798,0.334 -1.656,0.671 -2.48,1.024 l -1.248,0.543 -0.552,0.247 -0.086,0.043 c -0.003,-0.004 -0.003,-0.007 -0.003,-0.007 0.013,-0.16 0.048,-0.269 0.117,-0.312 1.513,-1.899 5.907,-2.306 6.175,-3.838 0.328,-1.087 0.6,-2.125 0.848,-3.088 C -7.86,3.712 -7.567,3.112 -7.109,2.572 -6.733,2.303 -6.339,2.031 -5.933,1.778 -3.906,0.4 -1.769,-0.533 0.394,-1.481 1.553,-1.891 -0.142,0.867 0,0 m 6.325,-9.863 c -0.429,0.055 1.037,0.554 0.195,0.653 -1.653,0.635 -3.37,0.904 -4.565,2.021 -0.867,0.171 -0.182,2.569 -0.994,2.77 -1.605,0.716 -6.654,2.42 -4.758,0.475 2.998,-2.841 5.296,-4.234 8.235,-6.22 2.725,-1.203 5.44,-2.059 8.159,-3.072 0.703,-0.368 1.225,-0.899 1.763,-1.426 -0.625,0.807 -1.277,1.586 -1.997,2.471 -0.847,1.267 -3.916,1.223 -6.038,2.328 M 41.479,5.351 41.433,5.975 c -0.014,0.106 -0.031,0.22 -0.052,0.336 -0.148,0.818 -0.446,1.815 -0.627,2.624 -0.432,1.871 -0.224,3.591 -0.726,5.745 -0.01,0.044 -0.025,0.09 -0.032,0.136 -0.045,0.184 -0.092,0.372 -0.141,0.563 -0.035,0.134 -0.07,0.267 -0.108,0.401 -0.185,0.582 -0.472,1.444 -0.649,1.974 -0.003,0.009 -0.003,0.012 -0.004,0.017 -0.284,0.685 -0.54,1.32 -0.787,1.939 -0.058,0.136 -0.114,0.277 -0.171,0.413 -0.111,0.274 -0.22,0.546 -0.334,0.818 -0.09,0.212 -0.177,0.418 -0.266,0.627 v -0.003 0.003 c -1.05,0.913 -2.078,1.778 -3.127,2.366 -3.843,2.071 -6.646,2.447 -10.035,2.854 2.208,-1.624 -0.75,-0.833 -0.866,-1.589 -0.18,-0.003 -0.362,0 -0.545,0 0.052,-0.673 0.09,-1.352 0.107,-2.042 0.339,-2.529 0.352,-3.819 0.314,-5.443 0.794,-0.125 1.505,-0.366 1.612,-1.31 l 0.608,-0.344 0.135,-0.071 c 0.069,-0.103 0.707,-0.204 0.745,-0.291 0.899,-0.502 0.899,-0.659 1.714,-1.2 1.561,-1.035 3.077,-2.19 4.558,-3.442 2.339,-2.048 4.576,-4.193 6.467,-6.387 0.615,-0.704 1.203,-1.453 1.719,-2.198 0.174,0.549 0.331,1.096 0.47,1.638 0.045,0.361 0.049,0.709 0.081,1.054 z M 31.28,-4.05 c -3.109,0.295 -6.095,0.851 -9.185,1.568 -1.029,-4.007 -2.719,-8.108 -5.234,-11.838 -0.24,-0.397 -0.47,-0.838 -0.696,-1.296 1.897,0.169 3.752,0.525 5.545,1.069 2.636,0.76 4.701,1.648 7.537,3.107 2.068,1.092 4.028,2.471 5.754,4.112 1.063,1.004 1.986,2.097 2.779,3.242 -1.961,-0.206 -4.201,-0.133 -6.5,0.036" /></g><g
           transform="translate(148.5544,112.3291)"
           id="g96"><path
             id="path98"
             style="fill:#ffe600;fill-opacity:1;fill-rule:nonzero;stroke:none"
             d="M 0,0 C -0.87,-1.725 -1.352,-3.442 -1.478,-4.741 1.696,-3.265 4.64,-1.38 7.287,0.847 7.255,0.842 7.227,0.836 7.195,0.83 4.293,0.323 2.309,0.136 0,0 M 2.719,64.767 C 2.982,64.392 3.237,64.015 3.474,63.639 5.09,61.073 6.223,58.45 7.05,55.864 7.258,55.214 7.424,54.573 7.6,53.925 L 7.827,52.963 7.934,52.482 7.952,52.406 C 8.543,50 8.115,51.733 8.248,51.195 L 8.251,51.181 8.254,51.113 8.259,50.98 c 0.024,-0.703 0.058,-1.464 0.145,-2.453 0.285,-1.439 0.801,-3.121 1.179,-5.209 0.19,-1.049 0.322,-2.205 0.358,-3.422 0.006,-0.435 -0.008,-0.791 -0.032,-1.136 3.569,-1.553 7.672,-3.049 11.244,-7.958 0.081,-0.135 0.165,-0.271 0.249,-0.407 0.003,0.25 0.009,0.502 0.009,0.755 0,14.186 -7.471,26.631 -18.692,33.617 m -19.426,-5.035 c -3.509,2.056 -5.049,2.987 -8.875,3.732 -1.365,0.412 -2.453,0.621 -3.721,0.548 -0.638,-0.025 -1.329,-0.112 -2.078,-0.24 l -0.275,-0.043 -0.07,-0.011 c -0.662,-0.114 -0.215,-0.035 -0.378,-0.065 l -0.116,-0.014 -0.46,-0.061 c -0.314,-0.02 -0.603,-0.111 -0.905,-0.172 -2.381,-0.542 -4.498,-2.012 -5.988,-4.175 -0.749,-1.073 -1.341,-2.3 -1.747,-3.625 -0.105,-0.299 -0.162,-0.609 -0.244,-0.92 0.193,0.137 0.439,0.122 0.688,0.05 l 0.148,-0.062 c 0.47,-0.139 0.807,-0.377 0.919,-0.078 1.034,1.477 1.679,3.219 2.393,4.68 1.716,0.903 3.482,1.705 5.432,2.302 1.304,0.396 2.619,0.645 3.892,0.715 0.119,-0.014 1.043,-0.125 1.423,-0.212 l 0.328,-0.079 c 0.603,-0.133 1.178,-0.331 1.725,-0.594 2.967,-1.45 6.34,-2.958 7.773,-3.993 0.986,-0.516 1.839,-0.954 2.52,-1.342 0.319,-0.195 0.695,-0.372 0.942,-0.554 l 0.418,-0.256 0.108,-0.06 0.025,-0.015 0.007,-0.006 c 0.057,-0.029 0.364,-0.188 0.66,-0.342 -1.089,1.998 -2.577,3.68 -4.544,4.892 m -31.476,-27.306 0.063,0.014 0.098,-0.052 c -0.048,0.664 0.255,2.09 -0.324,2.448 -1.285,1.298 -0.293,0.722 -0.972,2.134 -0.734,0.476 0.74,2.578 0.018,3.202 -0.624,0.861 -2.088,2.508 -2.979,4.181 -1.008,1.222 -1.464,3.306 -1.576,3.895 -1.39,-2.9 -2.441,-5.992 -3.093,-9.227 0.317,-0.274 0.595,-0.535 0.829,-0.787 0.038,-0.041 0.079,-0.074 0.116,-0.114 0,0 0.699,-0.72 1.059,-0.986 2.08,-1.834 4.303,-3.374 6.717,-4.65 z M -33.53,6.285 c -1.101,0.575 -2.468,1.11 -3.419,1.436 -1.334,0.446 -2.703,0.82 -4.096,1.16 -2.662,0.687 -5.35,1.272 -7.669,1.882 -1.217,0.345 -2.321,0.655 -3.339,1.014 -0.267,0.095 -0.53,0.2 -0.788,0.307 6.377,-11.582 18.392,-19.624 32.343,-20.436 l 0.01,0.053 0.022,0.156 0.012,0.081 0.005,0.038 v 0.003 c -0.008,-0.043 -0.017,-0.079 0,0.003 h 0.003 c 0.01,0.049 0.013,0.057 0.01,0.052 0.024,0.092 0.057,0.252 0.122,0.533 l 0.003,0.012 0.003,0.024 0.15,0.713 c 0.203,0.958 0.418,1.934 0.646,2.906 0.421,1.765 0.894,3.52 1.425,5.15 -2.547,0.594 -4.972,1.387 -7.276,2.352 -3.093,0.939 -5.867,1.369 -8.167,2.561" /></g><g
           transform="translate(136.9535,166.8777)"
           id="g100"><path
             id="path102"
             style="fill:#00a5e3;fill-opacity:1;fill-rule:nonzero;stroke:none"
             d="M 0,0 C 0.003,0 0.006,-0.003 0.006,-0.003 H 0.008 C 0.014,-0.006 0.011,-0.006 0,0 m 1.812,-8.532 c 0.185,0 0.372,-0.002 0.551,0 0.114,0.756 3.075,-0.037 0.867,1.59 3.388,-0.407 6.189,-0.784 10.035,-2.855 1.049,-0.589 2.076,-1.453 3.126,-2.366 -0.371,0.87 -0.728,1.69 -1.08,2.352 l -0.625,1.16 c -0.571,1.065 -0.741,1.355 -1.044,1.899 -0.089,0.155 -0.174,0.293 -0.252,0.421 -0.016,0.027 -0.032,0.052 -0.048,0.076 -0.063,0.104 -0.123,0.198 -0.182,0.277 -0.009,0.017 -0.02,0.036 -0.028,0.05 -0.004,0.002 -0.007,0.005 -0.007,0.005 -0.037,0.035 -0.072,0.059 -0.11,0.086 -0.014,0.011 -0.026,0.022 -0.04,0.031 -0.009,0.007 -0.014,0.012 -0.024,0.015 -0.079,0.052 -0.164,0.107 -0.261,0.174 -0.025,0.017 -0.045,0.032 -0.072,0.052 -0.07,0.049 -0.141,0.109 -0.224,0.185 -0.278,0.255 -0.661,0.589 -0.919,0.815 -0.047,0.029 -0.089,0.067 -0.133,0.094 -0.795,0.522 -2.012,1.101 -3.71,1.695 -1.295,0.508 -3.691,1.065 -7.061,2.543 l -0.592,0.26 -0.177,0.077 c 0.114,-0.061 0.171,-0.09 0.195,-0.101 -0.015,0.008 -0.035,0.017 -0.07,0.035 0.255,-0.133 -0.104,0.055 -0.489,0.255 1.374,-2.515 2.113,-5.545 2.374,-8.825 m 16.266,-20.53 c -1.89,2.193 -4.127,4.34 -6.467,6.386 -1.481,1.254 -2.997,2.408 -4.558,3.443 -0.817,0.539 -0.815,0.696 -1.714,1.201 -0.037,0.087 -0.676,0.188 -0.746,0.286 l -0.133,0.073 -0.609,0.345 c -0.108,0.948 -0.817,1.186 -1.611,1.311 -0.024,-1.003 -0.066,-2.137 -0.056,-3.773 0.008,-1.76 0.04,-3.511 0.081,-5.258 -0.02,-1.49 -0.017,-2.943 -0.171,-4.464 -0.18,-2.146 -0.554,-4.406 -1.143,-6.704 3.088,-0.716 6.073,-1.27 9.185,-1.565 2.299,-0.168 4.54,-0.241 6.499,-0.035 1.435,2.07 2.453,4.318 3.163,6.557 -0.519,0.744 -1.104,1.493 -1.72,2.197 m -44.587,5.975 c 0.133,0.46 0.159,0.856 0.119,1.206 -0.279,0.546 -0.561,1.082 -0.806,1.636 l -0.114,0.127 c -0.571,1.227 -1.192,2.787 -1.684,3.996 -0.192,0.258 -0.366,0.513 -0.533,0.711 -0.692,0.795 -1.366,1.586 -0.741,2.537 l -0.168,0.5 c -0.035,0.106 -0.196,0.611 -0.244,0.754 -0.231,0.777 -0.39,1.537 -0.454,2.261 -0.036,0.841 -0.036,1.635 0.225,2.393 l 0.076,0.287 0.032,0.139 h 0.003 v 0.003 c 0.003,0.052 0.038,0.421 0.058,0.627 v 0.005 0.012 l 0.002,0.021 0.006,0.043 0.01,0.084 0.066,0.685 c 0.029,0.434 0.119,0.956 0.195,1.461 0.118,0.809 0.298,1.706 0.367,2.678 l 0.014,0.217 c 0.079,0.408 0.068,0.568 0.117,0.843 -0.017,-0.014 -0.034,-0.03 -0.052,-0.046 l -0.073,-0.066 c -0.049,-0.068 -0.096,-0.146 -0.131,-0.25 -0.277,-0.499 -0.641,-1.059 -0.861,-1.555 -0.538,-1.23 -0.855,-2.326 -1.353,-3.463 -0.024,-0.055 -0.054,-0.194 -0.076,-0.248 -0.087,-0.193 -0.133,-0.337 -0.226,-0.529 -0.035,-0.066 -0.067,-0.133 -0.102,-0.199 -0.125,-0.242 -0.258,-0.48 -0.4,-0.711 -0.154,-1.136 -2.937,-1.627 -3.022,-2.883 -0.024,-0.075 -0.047,-0.16 -0.066,-0.244 -0.006,-0.025 -0.013,-0.054 -0.021,-0.081 -0.011,-0.06 -0.025,-0.122 -0.038,-0.182 -0.009,-0.033 -0.014,-0.068 -0.02,-0.099 -0.012,-0.064 -0.024,-0.124 -0.032,-0.189 -0.006,-0.035 -0.011,-0.066 -0.017,-0.101 -0.012,-0.076 -0.024,-0.157 -0.035,-0.235 -0.003,-0.02 -0.007,-0.041 -0.008,-0.061 -0.012,-0.101 -0.024,-0.203 -0.035,-0.307 -0.003,-0.032 -0.006,-0.064 -0.006,-0.095 -0.01,-0.076 -0.015,-0.152 -0.021,-0.227 -0.003,-0.041 -0.006,-0.078 -0.008,-0.118 -0.007,-0.073 -0.01,-0.146 -0.016,-0.216 -10e-4,-0.041 -10e-4,-0.082 -0.004,-0.121 -0.004,-0.076 -0.007,-0.154 -0.01,-0.233 0,-0.035 -0.003,-0.068 -0.003,-0.104 -0.003,-0.11 -0.005,-0.22 -0.008,-0.331 v -0.078 -0.255 c 0,-0.044 0.003,-0.084 0.003,-0.128 0,-0.069 0.002,-0.139 0.002,-0.212 0,-0.042 0.003,-0.084 0.003,-0.127 0.003,-0.072 0.006,-0.145 0.009,-0.218 0.004,-0.038 0.004,-0.075 0.007,-0.112 10e-4,-0.1 0.007,-0.198 0.014,-0.296 0,-0.018 0.003,-0.038 0.005,-0.059 0.003,-0.092 0.012,-0.185 0.017,-0.275 0.007,-0.038 0.01,-0.073 0.013,-0.109 0.005,-0.065 0.011,-0.129 0.017,-0.192 0.005,-0.041 0.009,-0.079 0.012,-0.119 0.009,-0.058 0.014,-0.12 0.023,-0.177 0.005,-0.038 0.008,-0.073 0.015,-0.108 0.007,-0.066 0.017,-0.129 0.025,-0.194 0.006,-0.026 0.009,-0.052 0.012,-0.075 0.011,-0.085 0.026,-0.165 0.043,-0.244 0.003,-0.026 0.009,-0.05 0.016,-0.075 0.008,-0.053 0.019,-0.105 0.03,-0.154 0.007,-0.03 0.013,-0.055 0.021,-0.084 0.009,-0.044 0.02,-0.084 0.031,-0.125 0.006,-0.025 0.016,-0.052 0.021,-0.074 0.012,-0.045 0.026,-0.083 0.038,-0.12 0.006,-0.018 0.011,-0.037 0.02,-0.056 0.018,-0.052 0.038,-0.101 0.059,-0.144 0.005,-0.011 0.01,-0.02 0.017,-0.032 0.015,-0.028 0.028,-0.058 0.043,-0.082 0.008,-0.014 0.018,-0.025 0.027,-0.035 0.014,-0.019 0.029,-0.036 0.043,-0.052 0.006,-0.008 0.017,-0.017 0.025,-0.025 0.016,-0.011 0.03,-0.021 0.047,-0.029 0.007,-0.003 0.015,-0.009 0.024,-0.009 0.023,-0.008 0.046,-0.008 0.07,-0.005 h 0.002 l 0.002,0.002 c 0.024,0.006 0.048,0.017 0.07,0.035 0.008,0.006 0.018,0.014 0.027,0.023 0.016,0.014 0.032,0.032 0.049,0.052 0.011,0.011 0.021,0.024 0.029,0.035 0.02,0.032 0.042,0.067 0.063,0.108 0.01,0.014 0.019,0.031 0.027,0.049 0.021,0.041 0.043,0.087 0.063,0.136 0.013,0.027 0.021,0.055 0.032,0.084 0.019,0.041 0.033,0.087 0.049,0.133 0.013,0.035 0.024,0.068 0.035,0.106 0.021,0.06 0.038,0.127 0.058,0.193 0.008,0.027 0.015,0.046 0.021,0.073 1.551,5.332 0.75,3.865 3.543,8.146 -0.718,-3.756 -0.556,-3.936 -2.229,-9.02 -0.583,-1.725 -1.569,-3.496 -2.402,-5.484 l 0.082,-0.043 0.553,-0.247 1.251,-0.541 c 0.823,-0.355 1.682,-0.69 2.48,-1.024 1.548,-0.668 3.175,-1.311 4.677,-1.891 1.351,-0.527 2.731,-1.029 4.126,-1.523 -0.809,1.244 -1.558,2.515 -2.244,3.811 -0.505,0.073 -0.998,0.04 -1.018,0.534" /></g><g
           transform="translate(128.1063,104.3072)"
           id="g104"><path
             id="path106"
             style="fill:#009b48;fill-opacity:1;fill-rule:nonzero;stroke:none"
             d="M 0,0 V 0.003 C -0.008,-0.041 -0.014,-0.076 0,0 m 30.534,27.182 c -0.087,1.125 -0.844,2.621 -1.888,4.129 -0.709,-2.238 -1.73,-4.486 -3.164,-6.557 0.741,0.076 1.442,0.193 2.089,0.358 0.629,0.174 1.254,0.359 1.909,0.617 0.319,0.117 0.66,0.264 0.991,0.397 -0.226,-0.13 -0.092,-0.055 0.052,0.03 0.006,0.115 0.008,0.269 0.015,0.492 0.024,0.154 0.026,0.331 -0.004,0.534 M 7.895,8.447 C 5.99,8.654 4.147,8.979 2.362,9.394 1.827,7.766 1.355,6.011 0.937,4.245 0.704,3.272 0.491,2.297 0.288,1.339 L 0.14,0.624 0.136,0.603 0.133,0.592 C 0.07,0.31 0.032,0.147 0.013,0.055 0.015,0.065 0.013,0.052 0,0.006 V 0.003 0 L -0.006,-0.041 -0.017,-0.119 -0.041,-0.276 -0.049,-0.331 C 0.725,-0.374 1.502,-0.4 2.289,-0.4 c 5.959,0 11.611,1.319 16.68,3.68 0.126,1.299 0.609,3.016 1.48,4.741 C 20.423,8.018 20.394,8.018 20.367,8.015 15.989,7.749 11.424,7.99 7.895,8.447 M 8.851,62.57 c 0,-0.002 0.003,-0.002 0.003,-0.002 C 8.86,62.565 8.857,62.565 8.851,62.57 M 30.359,46.784 c 0.022,0.342 0.036,0.701 0.031,1.136 -0.038,1.214 -0.171,2.37 -0.359,3.419 -0.378,2.088 -0.894,3.77 -1.181,5.209 -0.087,0.989 -0.122,1.75 -0.142,2.453 L 28.7,59.134 v 0.068 l -0.005,0.016 c -0.131,0.54 0.298,-1.197 -0.294,1.212 l -0.017,0.073 -0.108,0.485 -0.227,0.96 c -0.177,0.646 -0.342,1.287 -0.554,1.937 -0.822,2.587 -1.957,5.209 -3.572,7.775 -0.239,0.38 -0.493,0.753 -0.753,1.128 -6.062,3.773 -13.216,5.954 -20.881,5.954 -15.729,0 -29.317,-9.179 -35.697,-22.473 0.114,-0.589 0.568,-2.673 1.575,-3.895 0.893,-1.67 2.358,-3.32 2.98,-4.178 0.723,-0.627 -0.753,-2.726 -0.016,-3.205 0.678,-1.412 -0.313,-0.836 0.972,-2.134 0.577,-0.357 0.274,-1.784 0.325,-2.445 l 0.003,-0.003 c 0.831,1.986 1.82,3.756 2.404,5.484 1.67,5.081 1.51,5.264 2.227,9.018 -2.79,-4.279 -1.989,-2.812 -3.542,-8.145 -0.719,-2.613 -1.307,0.232 -1.279,3.044 v 0.007 0.017 c 0,0.101 0.003,0.204 0.006,0.302 v 0.011 0.006 c 0.029,0.977 0.136,1.927 0.344,2.607 0.08,1.252 2.864,1.746 3.019,2.883 0.143,0.232 0.274,0.47 0.399,0.71 0.035,0.067 0.068,0.133 0.101,0.201 0.096,0.188 0.14,0.333 0.227,0.527 0.025,0.056 0.052,0.195 0.074,0.25 0.499,1.137 0.819,2.233 1.358,3.463 0.217,0.493 0.583,1.054 0.862,1.554 0.031,0.105 0.077,0.182 0.126,0.249 l 0.073,0.067 c 0.017,0.017 0.038,0.031 0.055,0.043 0.081,0.311 0.136,0.621 0.244,0.92 0.407,1.325 0.997,2.555 1.746,3.628 1.491,2.16 3.608,3.631 5.989,4.175 0.302,0.059 0.592,0.149 0.905,0.171 l 0.461,0.059 0.112,0.017 c 0.163,0.027 -0.28,-0.049 0.38,0.062 l 0.066,0.011 0.279,0.043 c 0.749,0.131 1.442,0.215 2.078,0.24 1.27,0.073 2.357,-0.136 3.723,-0.547 3.823,-0.746 5.365,-1.677 8.874,-3.729 1.966,-1.216 3.45,-2.895 4.544,-4.896 0.215,-0.11 0.421,-0.215 0.516,-0.267 0.017,-0.008 0.032,-0.014 0.041,-0.021 -0.03,0.016 -0.09,0.047 -0.201,0.105 l 0.187,-0.081 0.59,-0.258 c 3.368,-1.48 5.766,-2.035 7.061,-2.543 1.698,-0.594 2.914,-1.175 3.711,-1.697 0.043,-0.026 0.087,-0.064 0.13,-0.092 0.261,-0.226 0.644,-0.56 0.92,-0.815 0.08,-0.076 0.156,-0.138 0.223,-0.187 0.025,-0.019 0.049,-0.033 0.072,-0.052 0.078,-0.054 0.151,-0.098 0.218,-0.141 0.075,-0.052 0.148,-0.098 0.214,-0.16 h 0.004 c 0.147,-0.215 0.321,-0.49 0.516,-0.835 0.307,-0.542 0.475,-0.836 1.046,-1.897 l 0.623,-1.16 c 0.355,-0.664 0.708,-1.481 1.08,-2.352 1.244,-1.081 2.52,-2.23 3.916,-3.083 0.392,-0.185 0.796,-0.362 1.206,-0.541" /></g></g></g></g></svg>