<?xml version="1.0" encoding="UTF-8"?>
<!-- Generator: Adobe Illustrator 13.0.0, SVG Export Plug-In . SVG Version: 6.00 Build 14948)  -->
<!DOCTYPE svg PUBLIC "-//W3C//DTD SVG 1.1//EN" "http://www.w3.org/Graphics/SVG/1.1/DTD/svg11.dtd">
<svg version="1.1" id="Layer_1" xmlns="http://www.w3.org/2000/svg" xmlns:xlink="http://www.w3.org/1999/xlink" x="0px" y="0px" width="995.517px" height="158.361px" viewBox="0 0 995.517 158.361" enable-background="new 0 0 995.517 158.361" xml:space="preserve">
<path fill="#C4151C" d="M252.388,14.022v5.772h49.488c3.299,0,8.248,0,11.547,3.3s3.299,8.249,3.299,11.548v49.486  c0,3.301,0,8.249-3.299,11.549c-3.299,3.299-8.248,3.299-11.547,3.299h-23.919c-4.124,0-9.486,0-11.547-4.536  c-2.062-4.537,0.824-8.661,3.299-11.96l32.167-42.888h-49.488l-19.795,26.392c-3.316,4.42-6.186,8.248-6.186,13.197  c0,4.947,2.672,8.512,6.186,13.196l4.949,6.599c4.948,6.598,9.897,13.196,16.496,16.496c6.598,3.299,14.433,3.299,25.156,3.299  h21.445c12.372,0,30.93,0,43.302-12.372s12.372-30.517,12.372-37.116V49.488c0-6.598,0-24.744-12.372-37.116  s-30.93-12.357-43.302-12.361L266.41,0c-3.3-0.001-7.424,0-10.723,3.301C252.388,6.6,252.388,10.724,252.388,14.022"/>
<polyline fill="#C4151C" points="193.003,39.59 242.491,39.59 183.105,118.771 133.618,118.771 193.003,39.59"/>
<path fill="#C4151C" d="M0,53.612c0-3.299,0-7.423,3.299-10.722s7.423-3.299,10.723-3.299h82.892c10.722,0,18.558,0,25.156,3.299  s11.547,9.896,16.496,16.496l4.949,6.598c3.513,4.685,6.186,8.248,6.186,13.197c0,4.947-2.871,8.775-6.186,13.196l-19.795,26.393  H74.232l32.167-42.889c2.474-3.299,5.361-7.424,3.299-11.96c-2.062-4.535-7.423-4.535-11.547-4.535H59.386v98.975H19.795V59.387H0  V53.612"/>
<path fill="#231F20" d="M403.334,104.519c-2.97,4.039-5.998,8.017-8.967,11.996v2.257h8.373c4.098-5.463,6.236-8.314,6.236-11.581  h8.195v11.581h7.839V107.19h8.195c0,3.267,2.138,6.118,6.235,11.581h8.374v-2.257l-9.027-11.996  c7.602-5.701,7.602-5.701,7.602-13.185V88.84h-8.552v2.494c0,9.086,0,9.086-8.908,9.086h-3.919V88.84h-7.839v11.58h-3.919  c-8.909,0-8.909,0-8.909-9.086V88.84h-8.551v2.494C395.792,98.817,395.792,98.817,403.334,104.519"/>
<path fill-rule="evenodd" clip-rule="evenodd" fill="#231F20" d="M462.66,101.135c0-6.594,0-6.594,7.304-6.594  c7.305,0,7.305,0,7.305,6.594H462.66 M462.66,106.479h7.304c7.661-0.06,9.918,0.06,12.472-0.535l3.028-0.712v-2.909  c0-4.93,0-14.194-14.074-14.194h-2.851c-14.074,0-14.074,9.265-14.074,14.252v2.852c0,5.345,0.118,14.252,15.618,14.252  c2.316,0,7.542,0,13.244-1.425v-6.413h-1.604l-5.701,1.425h-6.058C462.66,113.07,462.66,113.07,462.66,106.479z"/>
<path fill="#231F20" d="M498.707,88.842c0,4.514-0.356,18.111-7.483,27.613v2.316h8.73c5.167-6.889,5.167-15.856,5.167-23.339  h12.293v23.339h7.838v-29.93H498.707"/>
<path fill-rule="evenodd" clip-rule="evenodd" fill="#231F20" d="M543.304,101.135c0-6.594,0-6.594,7.306-6.594  c7.304,0,7.304,0,7.304,6.594H543.304 M543.304,106.479h7.306c7.659-0.06,9.916,0.06,12.471-0.535l3.027-0.712v-2.909  c0-4.93,0-14.194-14.073-14.194h-2.852c-14.073,0-14.073,9.265-14.073,14.252v2.852c0,5.345,0.118,14.252,15.617,14.252  c2.316,0,7.542,0,13.244-1.425v-6.413h-1.604l-5.701,1.425h-6.057C543.304,113.07,543.304,113.07,543.304,106.479z"/>
<path fill="#231F20" d="M594.909,104.281v-0.891c6.058-1.544,6.058-5.285,6.058-6.71c0-2.852,0-8.553-14.432-8.553  c-2.138,0-7.126,0-12.826,1.426v6.414h1.603l5.7-1.426h6.593c4.572,0,4.81,0,4.81,3.325c0,3.268,0,3.268-4.81,3.268h-6.593v5.344  h6.593c4.572,0,4.81,0,4.81,3.267c0,3.326,0,3.326-4.81,3.326h-6.593l-5.7-1.426h-1.603v6.414c5.7,1.424,10.688,1.424,12.826,1.424  c14.372,0,14.432-5.7,14.432-8.551C600.967,109.508,600.967,105.767,594.909,104.281"/>
<polyline fill="#231F20" points="633.568,88.842 633.568,100.421 617.891,100.421 617.891,88.842 610.052,88.842 610.052,118.771 617.891,118.771 617.891,107.191 633.568,107.191 633.568,118.771 641.407,118.771 641.407,88.842 633.568,88.842"/>
<path fill-rule="evenodd" clip-rule="evenodd" fill="#231F20" d="M666.171,103.807c6.236,0,6.236,0,6.236,4.632  c0,4.633,0,4.633-6.236,4.633h-6.236v-9.265H666.171 M694.142,88.842h-7.839v29.93h7.839V88.842z M667.24,118.771  c9.441,0,13.361-2.079,13.361-10.155c0-4.454,0-10.868-12.293-10.868c-1.78,0-4.811,0.18-8.374,1.07v-9.977h-7.839v29.93H667.24z"/>
<path fill-rule="evenodd" clip-rule="evenodd" fill="#231F20" d="M711.837,101.135c0-6.594,0-6.594,7.305-6.594s7.305,0,7.305,6.594  H711.837 M711.837,106.479h7.305c7.66-0.06,9.917,0.06,12.472-0.535l3.027-0.712v-2.909c0-4.93,0-14.194-14.074-14.194h-2.851  c-14.074,0-14.074,9.265-14.074,14.252v2.852c0,5.345,0.119,14.252,15.618,14.252c2.316,0,7.542,0,13.244-1.425v-6.413h-1.604  l-5.7,1.425h-6.058C711.837,113.07,711.837,113.07,711.837,106.479z"/>
<path fill-rule="evenodd" clip-rule="evenodd" fill="#231F20" d="M767.301,102.737c0-8.017,0-7.838,10.63-7.838  c1.426,0,3.386,0.177,5.761,0.712v12.827l-7.601,1.899C767.301,110.338,767.301,110.338,767.301,102.737 M762.67,123.403v6.77  c5.701,1.426,10.333,1.426,12.114,1.426c16.152,0,16.688-7.007,16.747-14.966V88.842h-2.555l-3.8,2.851  c-2.613-3.386-8.967-3.505-10.986-3.505c-15.085,0-15.085,9.502-15.085,13.837v1.426c0,4.988,0,13.183,12.828,13.183  c3.86,0,8.433-1.068,11.758-3.563v2.494c0,9.205-0.178,9.265-9.62,9.265h-4.097l-5.702-1.426H762.67z"/>
<path fill-rule="evenodd" clip-rule="evenodd" fill="#231F20" d="M815.345,88.128c-15.144,0-15.144,8.908-15.144,14.253v2.851  c0,5.345,0,14.252,15.144,14.252h2.851c15.144,0,15.144-8.907,15.144-14.252v-2.851c0-5.345,0-14.253-15.144-14.253H815.345   M816.77,94.721c8.374,0,8.374,0,8.374,9.086s0,9.086-8.374,9.086s-8.374,0-8.374-9.086S808.396,94.721,816.77,94.721z"/>
<path fill-rule="evenodd" clip-rule="evenodd" fill="#231F20" d="M866.238,103.807c0,8.907,0,8.907-8.73,8.907  c-2.138,0-4.87,0-7.661-0.713V97.036l7.603-1.899C866.238,95.137,866.238,95.255,866.238,103.807 M842.008,88.842v42.045h7.839  v-13.006c3.563,0.891,6.414,1.603,10.69,1.603c13.896,0,13.896-10.154,13.896-14.251v-2.852c0-4.988,0-14.253-13.005-14.253  c-6.65,0-10.512,2.911-12.649,4.514l-2.851-3.8H842.008z"/>
<path fill-rule="evenodd" clip-rule="evenodd" fill="#231F20" d="M898.008,88.128c-15.144,0-15.144,8.908-15.144,14.253v2.851  c0,5.345,0,14.252,15.144,14.252h2.85c15.145,0,15.145-8.907,15.145-14.252v-2.851c0-5.345,0-14.253-15.145-14.253H898.008   M899.433,94.721c8.374,0,8.374,0,8.374,9.086s0,9.086-8.374,9.086s-8.374,0-8.374-9.086S891.059,94.721,899.433,94.721z"/>
<path fill="#231F20" d="M938.626,88.128c-2.852,0-6.592,0-12.293,1.426v6.413h1.603l5.702-1.425h7.304c3.92,0,3.92,0,3.92,2.257  c0,1.545,0,2.02-3.028,2.554l-7.127,1.782c-4.099,1.009-9.798,2.553-9.798,8.729c0,4.097,0,9.619,14.43,9.619  c2.851,0,6.593,0,12.293-1.424v-6.414h-1.604c-2.375,0.653-4.632,1.187-5.522,1.426h-7.483c-3.919,0-3.919,0-3.919-2.258  c0-1.365,0-1.662,1.663-2.137l3.979-1.069l4.513-1.129c4.098-1.009,9.798-2.493,9.798-8.729  C953.056,93.651,953.056,88.128,938.626,88.128"/>
<path fill="#231F20" d="M989.697,119.604l5.819-4.336c-2.137-2.851-2.137-2.851-2.137-7.898V88.842h-7.839v21.734l-7.603,1.9  c-8.076,0-8.076,0-8.076-8.254V88.842h-7.839v16.567c0,5.879,0,14.074,11.937,14.074c6.236,0,10.096-2.909,12.233-4.512  L989.697,119.604"/>
<path fill-rule="evenodd" clip-rule="evenodd" fill="#231F20" d="M395.903,17.342v42.044h8.551v-11.58h6.77  c11.58,0,20.666,0,20.666-15.203c0-15.261-9.086-15.261-20.666-15.261H395.903 M404.454,40.323v-15.5h10.333  c7.661,0,8.017,0,8.017,7.779c0,7.542,0,7.721-8.017,7.721H404.454z"/>
<path fill-rule="evenodd" clip-rule="evenodd" fill="#231F20" d="M453.566,28.742c-15.144,0-15.144,8.908-15.144,14.253v2.851  c0,5.345,0,14.252,15.144,14.252h2.85c15.144,0,15.144-8.907,15.144-14.252v-2.851c0-5.345,0-14.253-15.144-14.253H453.566   M454.991,35.334c8.374,0,8.374,0,8.374,9.086s0,9.086-8.374,9.086s-8.374,0-8.374-9.086S446.617,35.334,454.991,35.334z"/>
<path fill="#231F20" d="M494.897,60.099c2.139,0,7.661,0,13.362-1.426v-6.412h-1.604l-5.76,1.425h-3.385  c-9.918,0-9.918,0-9.918-9.265s0-9.265,7.305-9.265c6.176,0,6.176,0,7.661,5.88l7.126-1.782c0-2.85,0-10.511-13.362-10.511h-2.85  c-14.075,0-14.075,8.908-14.075,14.252v2.852C479.397,51.191,479.397,60.099,494.897,60.099"/>
<path fill="#231F20" d="M532.547,60.099c2.138,0,7.661,0,13.362-1.426v-6.412h-1.604l-5.76,1.425h-3.385  c-9.918,0-9.918,0-9.918-9.265s0-9.265,7.305-9.265c6.176,0,6.176,0,7.661,5.88l7.126-1.782c0-2.85,0-10.511-13.362-10.511h-2.85  c-14.075,0-14.075,8.908-14.075,14.252v2.852C517.047,51.191,517.047,60.099,532.547,60.099"/>
<path fill="#231F20" d="M583.023,60.218l5.82-4.337c-2.137-2.85-2.137-2.85-2.137-7.897V29.455h-7.84V51.19l-7.602,1.899  c-8.077,0-8.077,0-8.077-8.254V29.455h-7.838v16.568c0,5.879,0,14.074,11.937,14.074c6.235,0,10.096-2.909,12.233-4.513  L583.023,60.218"/>
<path fill-rule="evenodd" clip-rule="evenodd" fill="#231F20" d="M610.579,18.766c-3.861,0-3.861,0-5.761-2.139l-3.444,2.674  c3.741,4.81,5.642,5.167,11.104,5.167h1.307c5.403,0,7.363-0.357,11.046-5.167l-3.445-2.674c-1.84,2.139-1.84,2.139-5.76,2.139  H610.579 M625.068,60.218l5.819-4.337c-2.138-2.85-2.138-2.85-2.138-7.897V29.455h-7.838V51.19l-7.603,1.899  c-7.897,0-8.077,0-8.077-8.254V29.455h-7.838v16.568c0,5.879,0,14.074,11.937,14.074c6.235,0,10.096-2.909,12.233-4.513  L625.068,60.218z"/>
<path fill="#231F20" d="M654.285,60.099c2.139,0,7.661,0,13.361-1.426v-6.412h-1.604l-5.76,1.425h-3.386  c-9.917,0-9.917,0-9.917-9.265s0-9.265,7.305-9.265c6.176,0,6.176,0,7.661,5.88l7.126-1.782c0-2.85,0-10.511-13.362-10.511h-2.851  c-14.074,0-14.074,8.908-14.074,14.252v2.852C638.785,51.191,638.785,60.099,654.285,60.099"/>
<path fill="#231F20" d="M677.861,29.455v29.931h7.839v-11.58h9.621c0,3.266,2.137,6.116,6.234,11.58h8.374v-2.257l-9.026-11.996  c7.601-5.7,7.601-5.7,7.601-13.184v-2.494h-8.551v2.494c0,9.086,0,9.086-8.908,9.086H685.7v-11.58H677.861"/>
<path fill="#231F20" d="M745.5,60.218l5.82-4.337c-2.138-2.85-2.138-2.85-2.138-7.897V29.455h-7.839V51.19l-7.602,1.899  c-8.077,0-8.077,0-8.077-8.254V29.455h-7.838v16.568c0,5.879,0,14.074,11.936,14.074c6.236,0,10.097-2.909,12.234-4.513  L745.5,60.218"/>
<path fill-rule="evenodd" clip-rule="evenodd" fill="#231F20" d="M766.818,41.749c0-6.593,0-6.593,7.306-6.593  c7.304,0,7.304,0,7.304,6.593H766.818 M766.818,47.094h7.306c7.66-0.06,9.917,0.06,12.471-0.535l3.028-0.712v-2.909  c0-4.931,0-14.194-14.074-14.194h-2.851c-14.074,0-14.074,9.264-14.074,14.252v2.852c0,5.345,0.119,14.252,15.618,14.252  c2.315,0,7.542,0,13.244-1.426v-6.412h-1.604l-5.701,1.425h-6.057C766.818,53.686,766.818,53.686,766.818,47.094z"/>
</svg>